<svg width="382" height="474" viewBox="0 0 382 474" fill="none" xmlns="http://www.w3.org/2000/svg">
<g opacity="0.4">
<circle cx="3.58928" cy="3.58928" r="3.58928" fill="#2C2650" fill-opacity="0.3"/>
<circle cx="3.58928" cy="39.4817" r="3.58928" fill="#2C2650" fill-opacity="0.3"/>
<circle cx="3.58928" cy="75.3753" r="3.58928" fill="#2C2650" fill-opacity="0.3"/>
<circle cx="3.58928" cy="111.268" r="3.58928" fill="#2C2650" fill-opacity="0.3"/>
<circle cx="3.58928" cy="147.16" r="3.58928" fill="#2C2650" fill-opacity="0.3"/>
<circle cx="3.58928" cy="183.053" r="3.58928" fill="#2C2650" fill-opacity="0.3"/>
<circle cx="3.58928" cy="218.946" r="3.58928" fill="#2C2650" fill-opacity="0.3"/>
<circle cx="3.58928" cy="254.839" r="3.58928" fill="#2C2650" fill-opacity="0.3"/>
<circle cx="3.58928" cy="290.731" r="3.58928" fill="#2C2650" fill-opacity="0.3"/>
<circle cx="3.58928" cy="326.625" r="3.58928" fill="#2C2650" fill-opacity="0.3"/>
<circle cx="3.58928" cy="362.517" r="3.58928" fill="#2C2650" fill-opacity="0.3"/>
<circle cx="3.58928" cy="398.409" r="3.58928" fill="#2C2650" fill-opacity="0.3"/>
<circle cx="3.58928" cy="434.302" r="3.58928" fill="#2C2650" fill-opacity="0.3"/>
<circle cx="3.58928" cy="470.196" r="3.58928" fill="#2C2650" fill-opacity="0.3"/>
<circle cx="39.4826" cy="3.58928" r="3.58928" fill="#2C2650" fill-opacity="0.3"/>
<circle cx="39.4826" cy="39.4817" r="3.58928" fill="#2C2650" fill-opacity="0.3"/>
<circle cx="39.4826" cy="75.3753" r="3.58928" fill="#2C2650" fill-opacity="0.3"/>
<circle cx="39.4826" cy="111.268" r="3.58928" fill="#2C2650" fill-opacity="0.3"/>
<circle cx="39.4826" cy="147.16" r="3.58928" fill="#2C2650" fill-opacity="0.3"/>
<circle cx="39.4826" cy="183.053" r="3.58928" fill="#2C2650" fill-opacity="0.3"/>
<circle cx="39.4826" cy="218.946" r="3.58928" fill="#2C2650" fill-opacity="0.3"/>
<circle cx="39.4826" cy="254.839" r="3.58928" fill="#2C2650" fill-opacity="0.3"/>
<circle cx="39.4826" cy="290.731" r="3.58928" fill="#2C2650" fill-opacity="0.3"/>
<circle cx="39.4826" cy="326.625" r="3.58928" fill="#2C2650" fill-opacity="0.3"/>
<circle cx="39.4826" cy="362.517" r="3.58928" fill="#2C2650" fill-opacity="0.3"/>
<circle cx="39.4826" cy="398.409" r="3.58928" fill="#2C2650" fill-opacity="0.3"/>
<circle cx="39.4826" cy="434.302" r="3.58928" fill="#2C2650" fill-opacity="0.3"/>
<circle cx="39.4826" cy="470.196" r="3.58928" fill="#2C2650" fill-opacity="0.3"/>
<circle cx="75.374" cy="3.58928" r="3.58928" fill="#2C2650" fill-opacity="0.3"/>
<circle cx="75.374" cy="39.4817" r="3.58928" fill="#2C2650" fill-opacity="0.3"/>
<circle cx="75.374" cy="75.3753" r="3.58928" fill="#2C2650" fill-opacity="0.3"/>
<circle cx="75.374" cy="111.268" r="3.58928" fill="#2C2650" fill-opacity="0.3"/>
<circle cx="75.374" cy="147.16" r="3.58928" fill="#2C2650" fill-opacity="0.3"/>
<circle cx="75.374" cy="183.053" r="3.58928" fill="#2C2650" fill-opacity="0.3"/>
<circle cx="75.374" cy="218.946" r="3.58928" fill="#2C2650" fill-opacity="0.3"/>
<circle cx="75.374" cy="254.839" r="3.58928" fill="#2C2650" fill-opacity="0.3"/>
<circle cx="75.374" cy="290.731" r="3.58928" fill="#2C2650" fill-opacity="0.3"/>
<circle cx="75.374" cy="326.625" r="3.58928" fill="#2C2650" fill-opacity="0.3"/>
<circle cx="75.374" cy="362.517" r="3.58928" fill="#2C2650" fill-opacity="0.3"/>
<circle cx="75.374" cy="398.409" r="3.58928" fill="#2C2650" fill-opacity="0.3"/>
<circle cx="75.374" cy="434.302" r="3.58928" fill="#2C2650" fill-opacity="0.3"/>
<circle cx="75.374" cy="470.196" r="3.58928" fill="#2C2650" fill-opacity="0.3"/>
<circle cx="111.267" cy="3.58928" r="3.58928" fill="#2C2650" fill-opacity="0.3"/>
<circle cx="111.267" cy="39.4817" r="3.58928" fill="#2C2650" fill-opacity="0.3"/>
<circle cx="111.267" cy="75.3753" r="3.58928" fill="#2C2650" fill-opacity="0.3"/>
<circle cx="111.267" cy="111.268" r="3.58928" fill="#2C2650" fill-opacity="0.3"/>
<circle cx="111.267" cy="147.16" r="3.58928" fill="#2C2650" fill-opacity="0.3"/>
<circle cx="111.267" cy="183.053" r="3.58928" fill="#2C2650" fill-opacity="0.3"/>
<circle cx="111.267" cy="218.946" r="3.58928" fill="#2C2650" fill-opacity="0.3"/>
<circle cx="111.267" cy="254.839" r="3.58928" fill="#2C2650" fill-opacity="0.3"/>
<circle cx="111.267" cy="290.731" r="3.58928" fill="#2C2650" fill-opacity="0.3"/>
<circle cx="111.267" cy="326.625" r="3.58928" fill="#2C2650" fill-opacity="0.3"/>
<circle cx="111.267" cy="362.517" r="3.58928" fill="#2C2650" fill-opacity="0.3"/>
<circle cx="111.267" cy="398.409" r="3.58928" fill="#2C2650" fill-opacity="0.3"/>
<circle cx="111.267" cy="434.302" r="3.58928" fill="#2C2650" fill-opacity="0.3"/>
<circle cx="111.267" cy="470.196" r="3.58928" fill="#2C2650" fill-opacity="0.3"/>
<circle cx="147.161" cy="3.58928" r="3.58928" fill="#2C2650" fill-opacity="0.3"/>
<circle cx="147.161" cy="39.4817" r="3.58928" fill="#2C2650" fill-opacity="0.3"/>
<circle cx="147.161" cy="75.3753" r="3.58928" fill="#2C2650" fill-opacity="0.3"/>
<circle cx="147.161" cy="111.268" r="3.58928" fill="#2C2650" fill-opacity="0.3"/>
<circle cx="147.161" cy="147.16" r="3.58928" fill="#2C2650" fill-opacity="0.3"/>
<circle cx="147.161" cy="183.053" r="3.58928" fill="#2C2650" fill-opacity="0.3"/>
<circle cx="147.161" cy="218.946" r="3.58928" fill="#2C2650" fill-opacity="0.3"/>
<circle cx="147.161" cy="254.839" r="3.58928" fill="#2C2650" fill-opacity="0.3"/>
<circle cx="147.161" cy="290.731" r="3.58928" fill="#2C2650" fill-opacity="0.3"/>
<circle cx="147.161" cy="326.625" r="3.58928" fill="#2C2650" fill-opacity="0.3"/>
<circle cx="147.161" cy="362.517" r="3.58928" fill="#2C2650" fill-opacity="0.3"/>
<circle cx="147.161" cy="398.409" r="3.58928" fill="#2C2650" fill-opacity="0.3"/>
<circle cx="147.161" cy="434.302" r="3.58928" fill="#2C2650" fill-opacity="0.3"/>
<circle cx="147.161" cy="470.196" r="3.58928" fill="#2C2650" fill-opacity="0.3"/>
<circle cx="183.054" cy="3.58928" r="3.58928" fill="#2C2650" fill-opacity="0.3"/>
<circle cx="183.054" cy="39.4817" r="3.58928" fill="#2C2650" fill-opacity="0.3"/>
<circle cx="183.054" cy="75.3753" r="3.58928" fill="#2C2650" fill-opacity="0.3"/>
<circle cx="183.054" cy="111.268" r="3.58928" fill="#2C2650" fill-opacity="0.3"/>
<circle cx="183.054" cy="147.16" r="3.58928" fill="#2C2650" fill-opacity="0.3"/>
<circle cx="183.054" cy="183.053" r="3.58928" fill="#2C2650" fill-opacity="0.3"/>
<circle cx="183.054" cy="218.946" r="3.58928" fill="#2C2650" fill-opacity="0.3"/>
<circle cx="183.054" cy="254.839" r="3.58928" fill="#2C2650" fill-opacity="0.3"/>
<circle cx="183.054" cy="290.731" r="3.58928" fill="#2C2650" fill-opacity="0.3"/>
<circle cx="183.054" cy="326.625" r="3.58928" fill="#2C2650" fill-opacity="0.3"/>
<circle cx="183.054" cy="362.517" r="3.58928" fill="#2C2650" fill-opacity="0.3"/>
<circle cx="183.054" cy="398.409" r="3.58928" fill="#2C2650" fill-opacity="0.3"/>
<circle cx="183.054" cy="434.302" r="3.58928" fill="#2C2650" fill-opacity="0.3"/>
<circle cx="183.054" cy="470.196" r="3.58928" fill="#2C2650" fill-opacity="0.3"/>
<circle cx="218.945" cy="3.58928" r="3.58928" fill="#2C2650" fill-opacity="0.3"/>
<circle cx="218.945" cy="39.4817" r="3.58928" fill="#2C2650" fill-opacity="0.3"/>
<circle cx="218.945" cy="75.3753" r="3.58928" fill="#2C2650" fill-opacity="0.3"/>
<circle cx="218.945" cy="111.268" r="3.58928" fill="#2C2650" fill-opacity="0.3"/>
<circle cx="218.945" cy="147.16" r="3.58928" fill="#2C2650" fill-opacity="0.3"/>
<circle cx="218.945" cy="183.053" r="3.58928" fill="#2C2650" fill-opacity="0.3"/>
<circle cx="218.945" cy="218.946" r="3.58928" fill="#2C2650" fill-opacity="0.3"/>
<circle cx="218.945" cy="254.839" r="3.58928" fill="#2C2650" fill-opacity="0.3"/>
<circle cx="218.945" cy="290.731" r="3.58928" fill="#2C2650" fill-opacity="0.3"/>
<circle cx="218.945" cy="326.625" r="3.58928" fill="#2C2650" fill-opacity="0.3"/>
<circle cx="218.945" cy="362.517" r="3.58928" fill="#2C2650" fill-opacity="0.3"/>
<circle cx="218.945" cy="398.409" r="3.58928" fill="#2C2650" fill-opacity="0.3"/>
<circle cx="218.945" cy="434.302" r="3.58928" fill="#2C2650" fill-opacity="0.3"/>
<circle cx="218.945" cy="470.196" r="3.58928" fill="#2C2650" fill-opacity="0.3"/>
<circle cx="254.839" cy="3.58928" r="3.58928" fill="#2C2650" fill-opacity="0.3"/>
<circle cx="254.839" cy="39.4817" r="3.58928" fill="#2C2650" fill-opacity="0.3"/>
<circle cx="254.839" cy="75.3753" r="3.58928" fill="#2C2650" fill-opacity="0.3"/>
<circle cx="254.839" cy="111.268" r="3.58928" fill="#2C2650" fill-opacity="0.3"/>
<circle cx="254.839" cy="147.16" r="3.58928" fill="#2C2650" fill-opacity="0.3"/>
<circle cx="254.839" cy="183.053" r="3.58928" fill="#2C2650" fill-opacity="0.3"/>
<circle cx="254.839" cy="218.946" r="3.58928" fill="#2C2650" fill-opacity="0.3"/>
<circle cx="254.839" cy="254.839" r="3.58928" fill="#2C2650" fill-opacity="0.3"/>
<circle cx="254.839" cy="290.731" r="3.58928" fill="#2C2650" fill-opacity="0.3"/>
<circle cx="254.839" cy="326.625" r="3.58928" fill="#2C2650" fill-opacity="0.3"/>
<circle cx="254.839" cy="362.517" r="3.58928" fill="#2C2650" fill-opacity="0.3"/>
<circle cx="254.839" cy="398.409" r="3.58928" fill="#2C2650" fill-opacity="0.3"/>
<circle cx="254.839" cy="434.302" r="3.58928" fill="#2C2650" fill-opacity="0.3"/>
<circle cx="254.839" cy="470.196" r="3.58928" fill="#2C2650" fill-opacity="0.3"/>
<circle cx="290.732" cy="3.58928" r="3.58928" fill="#2C2650" fill-opacity="0.3"/>
<circle cx="290.732" cy="39.4817" r="3.58928" fill="#2C2650" fill-opacity="0.3"/>
<circle cx="290.732" cy="75.3753" r="3.58928" fill="#2C2650" fill-opacity="0.3"/>
<circle cx="290.732" cy="111.268" r="3.58928" fill="#2C2650" fill-opacity="0.3"/>
<circle cx="290.732" cy="147.16" r="3.58928" fill="#2C2650" fill-opacity="0.3"/>
<circle cx="290.732" cy="183.053" r="3.58928" fill="#2C2650" fill-opacity="0.3"/>
<circle cx="290.732" cy="218.946" r="3.58928" fill="#2C2650" fill-opacity="0.3"/>
<circle cx="290.732" cy="254.839" r="3.58928" fill="#2C2650" fill-opacity="0.3"/>
<circle cx="290.732" cy="290.731" r="3.58928" fill="#2C2650" fill-opacity="0.3"/>
<circle cx="290.732" cy="326.625" r="3.58928" fill="#2C2650" fill-opacity="0.3"/>
<circle cx="290.732" cy="362.517" r="3.58928" fill="#2C2650" fill-opacity="0.3"/>
<circle cx="290.732" cy="398.409" r="3.58928" fill="#2C2650" fill-opacity="0.3"/>
<circle cx="290.732" cy="434.302" r="3.58928" fill="#2C2650" fill-opacity="0.3"/>
<circle cx="290.732" cy="470.196" r="3.58928" fill="#2C2650" fill-opacity="0.3"/>
<circle cx="326.623" cy="3.58928" r="3.58928" fill="#2C2650" fill-opacity="0.3"/>
<circle cx="326.623" cy="39.4817" r="3.58928" fill="#2C2650" fill-opacity="0.3"/>
<circle cx="326.623" cy="75.3753" r="3.58928" fill="#2C2650" fill-opacity="0.3"/>
<circle cx="326.623" cy="111.268" r="3.58928" fill="#2C2650" fill-opacity="0.3"/>
<circle cx="326.623" cy="147.16" r="3.58928" fill="#2C2650" fill-opacity="0.3"/>
<circle cx="326.623" cy="183.053" r="3.58928" fill="#2C2650" fill-opacity="0.3"/>
<circle cx="326.623" cy="218.946" r="3.58928" fill="#2C2650" fill-opacity="0.3"/>
<circle cx="326.623" cy="254.839" r="3.58928" fill="#2C2650" fill-opacity="0.3"/>
<circle cx="326.623" cy="290.731" r="3.58928" fill="#2C2650" fill-opacity="0.3"/>
<circle cx="326.623" cy="326.625" r="3.58928" fill="#2C2650" fill-opacity="0.3"/>
<circle cx="326.623" cy="362.517" r="3.58928" fill="#2C2650" fill-opacity="0.3"/>
<circle cx="326.623" cy="398.409" r="3.58928" fill="#2C2650" fill-opacity="0.3"/>
<circle cx="326.623" cy="434.302" r="3.58928" fill="#2C2650" fill-opacity="0.3"/>
<circle cx="326.623" cy="470.196" r="3.58928" fill="#2C2650" fill-opacity="0.3"/>
<circle cx="362.517" cy="3.58928" r="3.58928" fill="#2C2650" fill-opacity="0.3"/>
<circle cx="362.517" cy="39.4817" r="3.58928" fill="#2C2650" fill-opacity="0.3"/>
<circle cx="362.517" cy="75.3753" r="3.58928" fill="#2C2650" fill-opacity="0.3"/>
<circle cx="362.517" cy="111.268" r="3.58928" fill="#2C2650" fill-opacity="0.3"/>
<circle cx="362.517" cy="147.16" r="3.58928" fill="#2C2650" fill-opacity="0.3"/>
<circle cx="362.517" cy="183.053" r="3.58928" fill="#2C2650" fill-opacity="0.3"/>
<circle cx="362.517" cy="218.946" r="3.58928" fill="#2C2650" fill-opacity="0.3"/>
<circle cx="362.517" cy="254.839" r="3.58928" fill="#2C2650" fill-opacity="0.3"/>
<circle cx="362.517" cy="290.731" r="3.58928" fill="#2C2650" fill-opacity="0.3"/>
<circle cx="362.517" cy="326.625" r="3.58928" fill="#2C2650" fill-opacity="0.3"/>
<circle cx="362.517" cy="362.517" r="3.58928" fill="#2C2650" fill-opacity="0.3"/>
<circle cx="362.517" cy="398.409" r="3.58928" fill="#2C2650" fill-opacity="0.3"/>
<circle cx="362.517" cy="434.302" r="3.58928" fill="#2C2650" fill-opacity="0.3"/>
<circle cx="362.517" cy="470.196" r="3.58928" fill="#2C2650" fill-opacity="0.3"/>
</g>
</svg>
