<svg width="56" height="56" viewBox="0 0 56 56" fill="none" xmlns="http://www.w3.org/2000/svg">
<path d="M41.8149 27.5536L35.4514 21.2214C35.2229 20.9557 34.8211 20.9248 34.5542 21.1523C34.2873 21.3798 34.2562 21.7795 34.4848 22.0451C34.5061 22.0699 34.5293 22.093 34.5542 22.1142L39.8295 27.37H14.6363C14.2849 27.37 14 27.6535 14 28.0032C14 28.353 14.2849 28.6364 14.6363 28.6364H39.8295L34.5542 33.8858C34.2873 34.1133 34.2562 34.513 34.4848 34.7786C34.7135 35.0443 35.1151 35.0752 35.382 34.8477C35.4069 34.8265 35.4302 34.8034 35.4514 34.7786L41.815 28.4464C42.0617 28.1995 42.0617 27.8006 41.8149 27.5536Z" fill="black"/>
<circle cx="28" cy="28" r="27.5" stroke="black"/>
</svg>
