<svg fill="none" height="525" viewBox="0 0 748 525" width="748" xmlns="http://www.w3.org/2000/svg" xmlns:xlink="http://www.w3.org/1999/xlink"><linearGradient id="a"><stop offset=".0128742" stop-color="#7284ff"/><stop offset=".2559" stop-color="#7282ff"/><stop offset=".3435" stop-color="#747bff"/><stop offset=".4059" stop-color="#7670ff"/><stop offset=".4563" stop-color="#795fff"/><stop offset=".4991" stop-color="#7c49ff"/><stop offset=".513" stop-color="#7e40ff"/><stop offset=".6877" stop-color="#7c3eff"/><stop offset=".7904" stop-color="#7735ff"/><stop offset=".8746" stop-color="#6e27ff"/><stop offset=".9483" stop-color="#6213ff"/><stop offset="1" stop-color="#5600ff"/></linearGradient><linearGradient id="b" gradientUnits="userSpaceOnUse" x1="316.487" x2="435.171" xlink:href="#a" y1="239.019" y2="239.019"/><linearGradient id="c"><stop offset=".0128742" stop-color="#7284ff"/><stop offset="1" stop-color="#aa9bff"/></linearGradient><linearGradient id="d" gradientUnits="userSpaceOnUse" x1="440.132" x2="385.855" xlink:href="#c" y1="153.559" y2="184.93"/><linearGradient id="e" gradientUnits="userSpaceOnUse" x1="316.487" x2="435.171" xlink:href="#a" y1="167.897" y2="167.897"/><linearGradient id="f" gradientUnits="userSpaceOnUse" x1="440.132" x2="385.855" xlink:href="#c" y1="82.437" y2="113.808"/><linearGradient id="g" gradientUnits="userSpaceOnUse" x1="316.487" x2="435.171" xlink:href="#a" y1="97.2135" y2="97.2135"/><linearGradient id="h" gradientUnits="userSpaceOnUse" x1="440.132" x2="385.855" xlink:href="#c" y1="11.7535" y2="43.1249"/><linearGradient id="i" gradientUnits="userSpaceOnUse" x1="386.292" x2="504.976" xlink:href="#a" y1="280.287" y2="280.287"/><linearGradient id="j" gradientUnits="userSpaceOnUse" x1="509.938" x2="455.66" xlink:href="#c" y1="194.827" y2="226.199"/><linearGradient id="k"><stop offset=".0128742" stop-color="#330a66"/><stop offset=".0747283" stop-color="#370d6f"/><stop offset=".176" stop-color="#431688"/><stop offset=".3042" stop-color="#5724b0"/><stop offset=".4528" stop-color="#7237e7"/><stop offset=".513" stop-color="#7e40ff"/><stop offset=".5299" stop-color="#763aee"/><stop offset=".5709" stop-color="#642dca"/><stop offset=".6155" stop-color="#5522ab"/><stop offset=".6641" stop-color="#481991"/><stop offset=".718" stop-color="#3f127e"/><stop offset=".7801" stop-color="#380e70"/><stop offset=".8578" stop-color="#340b68"/><stop offset="1" stop-color="#330a66"/></linearGradient><linearGradient id="l" gradientUnits="userSpaceOnUse" x1="386.292" x2="504.976" xlink:href="#k" y1="209.165" y2="209.165"/><linearGradient id="m" gradientUnits="userSpaceOnUse" x1="455.78" x2="574.468" xlink:href="#a" y1="235.023" y2="235.023"/><linearGradient id="n" gradientUnits="userSpaceOnUse" x1="579.429" x2="525.151" xlink:href="#c" y1="166.087" y2="197.458"/><linearGradient id="o" gradientUnits="userSpaceOnUse" x1="455.391" x2="574.079" xlink:href="#a" y1="305.818" y2="305.818"/><linearGradient id="p"><stop offset="0" stop-color="#25054d"/><stop offset="1" stop-color="#45108a"/></linearGradient><linearGradient id="q" gradientUnits="userSpaceOnUse" x1="485.918" x2="556.506" xlink:href="#p" y1="342.925" y2="342.925"/><linearGradient id="r" gradientUnits="userSpaceOnUse" x1="579.04" x2="524.762" xlink:href="#c" y1="236.882" y2="268.253"/><linearGradient id="s" gradientUnits="userSpaceOnUse" x1="245.365" x2="364.049" xlink:href="#a" y1="281.165" y2="281.165"/><linearGradient id="t" gradientUnits="userSpaceOnUse" x1="369.01" x2="314.733" xlink:href="#c" y1="195.706" y2="227.077"/><linearGradient id="u" gradientUnits="userSpaceOnUse" x1="245.365" x2="364.049" xlink:href="#a" y1="210.043" y2="210.043"/><linearGradient id="v" gradientUnits="userSpaceOnUse" x1="245.281" x2="364.062" xlink:href="#c" y1="161.77" y2="161.77"/><linearGradient id="w" gradientUnits="userSpaceOnUse" x1="244.625" x2="363.313" xlink:href="#a" y1="121.453" y2="121.453"/><linearGradient id="x" gradientUnits="userSpaceOnUse" x1="368.274" x2="313.996" xlink:href="#c" y1="52.5177" y2="83.8893"/><linearGradient id="y" gradientUnits="userSpaceOnUse" x1="388.534" x2="507.219" xlink:href="#a" y1="138.812" y2="138.812"/><linearGradient id="z" gradientUnits="userSpaceOnUse" x1="462.255" x2="507.219" y1="141.65" y2="141.65"><stop offset=".00000032294" stop-color="#7e40ff" stop-opacity=".1"/><stop offset=".119" stop-color="#7237e7" stop-opacity=".2085"/><stop offset=".4122" stop-color="#5724b0" stop-opacity=".4759"/><stop offset=".6651" stop-color="#431688" stop-opacity=".7064"/><stop offset=".8651" stop-color="#370d6f" stop-opacity=".8887"/><stop offset=".9871" stop-color="#330a66"/></linearGradient><linearGradient id="A" gradientUnits="userSpaceOnUse" x1="512.18" x2="457.903" xlink:href="#c" y1="53.3519" y2="84.7233"/><linearGradient id="B" gradientUnits="userSpaceOnUse" x1="315.17" x2="433.854" xlink:href="#a" y1="322.433" y2="322.433"/><linearGradient id="C" gradientUnits="userSpaceOnUse" x1="438.815" x2="384.538" xlink:href="#c" y1="236.974" y2="268.345"/><linearGradient id="D" gradientUnits="userSpaceOnUse" x1="315.313" x2="433.998" xlink:href="#a" y1="250.163" y2="250.163"/><linearGradient id="E"><stop offset=".0128742" stop-color="#330a66"/><stop offset=".1349" stop-color="#370d6f" stop-opacity=".8887"/><stop offset=".3349" stop-color="#431688" stop-opacity=".7064"/><stop offset=".5878" stop-color="#5724b0" stop-opacity=".4759"/><stop offset=".881" stop-color="#7237e7" stop-opacity=".2085"/><stop offset="1" stop-color="#7e40ff" stop-opacity=".1"/></linearGradient><linearGradient id="F" gradientUnits="userSpaceOnUse" x1="351.907" x2="374.557" xlink:href="#E" y1="268.337" y2="280.99"/><linearGradient id="G" gradientUnits="userSpaceOnUse" x1="315.231" x2="434.011" xlink:href="#c" y1="201.89" y2="201.89"/><linearGradient id="H" gradientUnits="userSpaceOnUse" x1="384.975" x2="503.659" xlink:href="#k" y1="363.702" y2="363.702"/><linearGradient id="I" gradientUnits="userSpaceOnUse" x1="172.487" x2="291.171" xlink:href="#a" y1="321.995" y2="321.995"/><linearGradient id="J" gradientUnits="userSpaceOnUse" x1="246.497" x2="226.886" xlink:href="#c" y1="345.479" y2="249.778"/><linearGradient id="K" gradientUnits="userSpaceOnUse" x1="172.487" x2="291.171" xlink:href="#a" y1="250.872" y2="250.872"/><linearGradient id="L" gradientUnits="userSpaceOnUse" x1="296.131" x2="241.854" xlink:href="#c" y1="165.413" y2="196.784"/><linearGradient id="M" gradientUnits="userSpaceOnUse" x1="172.764" x2="291.451" xlink:href="#a" y1="163.467" y2="163.467"/><linearGradient id="N" gradientUnits="userSpaceOnUse" x1="224.639" x2="268.698" y1="191.945" y2="191.945"><stop offset="0" stop-color="#400084"/><stop offset=".4603" stop-color="#38106e" stop-opacity=".5391"/><stop offset=".9987" stop-color="#2c2650" stop-opacity="0"/></linearGradient><linearGradient id="O" gradientUnits="userSpaceOnUse" x1="296.412" x2="242.135" xlink:href="#c" y1="94.531" y2="125.903"/><linearGradient id="P" gradientUnits="userSpaceOnUse" x1="242.292" x2="360.976" xlink:href="#a" y1="363.263" y2="363.263"/><linearGradient id="Q" gradientUnits="userSpaceOnUse" x1="365.937" x2="311.659" xlink:href="#c" y1="277.802" y2="309.174"/><linearGradient id="R" gradientUnits="userSpaceOnUse" x1="271.077" x2="338.259" xlink:href="#E" y1="322.405" y2="308.448"/><linearGradient id="S" gradientUnits="userSpaceOnUse" x1="312.315" x2="431.003" xlink:href="#a" y1="389.02" y2="389.02"/><linearGradient id="T" gradientUnits="userSpaceOnUse" x1="338.18" x2="406.792" xlink:href="#p" y1="420.712" y2="420.712"/><linearGradient id="U" gradientUnits="userSpaceOnUse" x1="435.964" x2="381.686" xlink:href="#c" y1="320.085" y2="351.456"/><linearGradient id="V" gradientUnits="userSpaceOnUse" x1="253.064" x2="347.715" xlink:href="#k" y1="308.401" y2="236.798"/><linearGradient id="W" gradientUnits="userSpaceOnUse" x1="490.092" x2="599.115" xlink:href="#a" y1="122.214" y2="169.106"/><linearGradient id="X" gradientUnits="userSpaceOnUse" x1="637.436" x2="575.182" xlink:href="#c" y1="92.5621" y2="99.9347"/><linearGradient id="Y" gradientUnits="userSpaceOnUse" x1="489.824" x2="599.394" y1="122.288" y2="167.899"><stop offset=".0128742" stop-color="#84ffff"/><stop offset=".1928" stop-color="#82fefe"/><stop offset=".2836" stop-color="#7af9fa"/><stop offset=".3545" stop-color="#6df0f4"/><stop offset=".4151" stop-color="#5ae5eb"/><stop offset=".4691" stop-color="#42d5e0"/><stop offset=".5176" stop-color="#24c3d2"/><stop offset=".5625" stop-color="#01adc1"/><stop offset=".5637" stop-color="#00acc1"/><stop offset=".7595" stop-color="#00aac0"/><stop offset=".8301" stop-color="#01a3be"/><stop offset=".8803" stop-color="#0398bb"/><stop offset=".921" stop-color="#0587b5"/><stop offset=".9558" stop-color="#0871ae"/><stop offset=".9861" stop-color="#0b56a6"/><stop offset="1" stop-color="#0d47a1"/></linearGradient><linearGradient id="Z" gradientUnits="userSpaceOnUse" x1="489.535" x2="600.784" xlink:href="#a" y1="121.154" y2="168.043"/><linearGradient id="aa" gradientUnits="userSpaceOnUse" x1="508.257" x2="620.144" xlink:href="#c" y1="99.3319" y2="99.3319"/><linearGradient id="ab" gradientUnits="userSpaceOnUse" x1="110.888" x2="229.572" xlink:href="#a" y1="462.684" y2="462.684"/><linearGradient id="ac" gradientUnits="userSpaceOnUse" x1="234.533" x2="180.255" xlink:href="#c" y1="377.225" y2="408.596"/><linearGradient id="ad" gradientUnits="userSpaceOnUse" x1="512.08" x2="630.768" xlink:href="#a" y1="426.855" y2="426.855"/><linearGradient id="ae" gradientUnits="userSpaceOnUse" x1="635.729" x2="581.451" xlink:href="#c" y1="357.919" y2="389.291"/><clipPath id="af"><path d="m0 0h747.843v524.493h-747.843z"/></clipPath><g clip-path="url(#af)"><g stroke="#7a729b" stroke-width=".44678"><path d="m213.721 61.8401-3.102 1.8129" stroke-miterlimit="10"/><path d="m203.891 67.5208-37.104 21.4325" stroke-dasharray="7.79 7.79" stroke-miterlimit="10"/><path d="m163.403 90.887-3.062 1.8129" stroke-miterlimit="10"/><path d="m373.901 31.0208-3.102 1.7726" stroke-miterlimit="10"/><path d="m364.515 36.4192-43.993 25.4209-53.421 30.8597-53.38 30.8192-47.176 27.234" stroke-dasharray="7.26 7.26" stroke-miterlimit="10"/><path d="m163.403 152.566-3.102 1.773" stroke-miterlimit="10"/><path d="m106.921 246.837 3.102-1.773" stroke-miterlimit="10"/><path d="m116.187 241.479 44.154-25.461 53.38-30.82 53.38-30.859 53.421-30.82 53.379-30.8191 47.257-27.2741" stroke-dasharray="7.11 7.11" stroke-miterlimit="10"/><path d="m424.22 63.653 3.102-1.8129" stroke-miterlimit="10"/><path d="m106.921 308.476 3.102-1.773" stroke-miterlimit="10"/><path d="m116.106 303.198 44.235-25.542 53.38-30.819 53.38-30.82 53.421-30.859 53.379-30.82 53.421-30.819 53.38-30.8193 47.256-27.3144" stroke-dasharray="7.05 7.05" stroke-miterlimit="10"/><path d="m531.02 63.653 3.102-1.8129" stroke-miterlimit="10"/><path d="m53.5008 339.335-3.1021 1.773" stroke-miterlimit="10"/><path d="m43.6709 345.016-37.10416 21.392" stroke-dasharray="7.79 7.79" stroke-miterlimit="10"/><path d="m3.22294 368.382-3.102086 1.773" stroke-miterlimit="10"/><path d="m53.5008 401.015 3.1021-1.813" stroke-miterlimit="10"/><path d="m62.8071 395.616 44.1139-25.461 53.42-30.82 53.38-30.819 53.38-30.86 53.42-30.819 53.38-30.819 53.421-30.82 53.38-30.859 53.42-30.82 47.216-27.2739" stroke-dasharray="7.17 7.17" stroke-miterlimit="10"/><path d="m584.44 94.4726 3.062-1.7726" stroke-miterlimit="10"/><path d="m106.921 431.834 3.102-1.813" stroke-miterlimit="10"/><path d="m116.227 426.435 44.114-25.421 53.38-30.859 53.38-30.82 53.421-30.819 53.379-30.86 53.421-30.819 53.38-30.819 53.42-30.82 53.38-30.859 47.216-27.234" stroke-dasharray="7.17 7.17" stroke-miterlimit="10"/><path d="m637.82 125.292 3.102-1.772" stroke-miterlimit="10"/><path d="m640.922 185.198-3.102 1.773" stroke-miterlimit="10"/><path d="m631.737 190.476-44.235 25.542-53.38 30.819-53.42 30.819-53.38 30.86-53.421 30.819-53.379 30.82-53.421 30.819-47.216 27.315" stroke-dasharray="7.05 7.05" stroke-miterlimit="10"/><path d="m216.823 430.021-3.102 1.813" stroke-miterlimit="10"/><path d="m694.302 216.018-3.062 1.772" stroke-miterlimit="10"/><path d="m685.117 221.295-44.195 25.542-53.42 30.819-53.38 30.86-53.42 30.819-53.38 30.82-53.421 30.859-53.38 30.82-47.256 27.274" stroke-dasharray="7.05 7.05" stroke-miterlimit="10"/><path d="m270.203 460.881-3.102 1.772" stroke-miterlimit="10"/><path d="m267.101 524.332 3.102-1.813" stroke-miterlimit="10"/><path d="m276.367 518.974 44.155-25.501 53.38-30.82h.04l53.38-30.819 53.38-30.819 53.42-30.86 53.38-30.819 53.42-30.82 53.38-30.86 47.216-27.274" stroke-dasharray="7.11 7.11" stroke-miterlimit="10"/><path d="m744.62 248.61 3.102-1.773" stroke-miterlimit="10"/><path d="m640.922 370.155-3.102 1.773" stroke-miterlimit="10"/><path d="m631.777 375.433-44.275 25.582-53.38 30.819-53.42 30.819-53.38 30.82-47.257 27.314" stroke-dasharray="7 7" stroke-miterlimit="10"/><path d="m377.004 522.519-3.103 1.813" stroke-miterlimit="10"/><path d="m747.722 308.516-3.102 1.773" stroke-miterlimit="10"/><path d="m737.892 314.197-37.104 21.392" stroke-dasharray="7.79 7.79" stroke-miterlimit="10"/><path d="m697.404 337.523-3.102 1.813" stroke-miterlimit="10"/><path d="m640.922 431.834-3.102 1.773" stroke-miterlimit="10"/><path d="m631.092 437.514-37.104 21.393" stroke-dasharray="7.79 7.79" stroke-miterlimit="10"/><path d="m590.604 460.881-3.102 1.772" stroke-miterlimit="10"/><path d="m747.722 370.155-3.102 1.813" stroke-miterlimit="10"/><path d="m737.892 375.835-37.104 21.433" stroke-dasharray="7.79 7.79" stroke-miterlimit="10"/><path d="m697.404 399.202-3.102 1.813" stroke-miterlimit="10"/><path d="m534.122 493.473-3.102 1.772" stroke-miterlimit="10"/><path d="m524.292 499.153-37.104 21.433" stroke-dasharray="7.79 7.79" stroke-miterlimit="10"/><path d="m483.804 522.52-3.102 1.772" stroke-miterlimit="10"/><path d="m694.302 216.017-3.062-1.813" stroke-miterlimit="10"/><path d="m684.472 210.337-37.104-21.433" stroke-dasharray="7.79 7.79" stroke-miterlimit="10"/><path d="m644.024 186.97-3.102-1.772" stroke-miterlimit="10"/><path d="m587.502 154.338-3.062-1.772" stroke-miterlimit="10"/><path d="m578.357 149.06-44.235-25.542-53.42-30.819-53.38-30.8596-53.421-30.8194-47.256-27.27415" stroke-dasharray="7 7" stroke-miterlimit="10"/><path d="m323.624 1.97379-3.102-1.772618" stroke-miterlimit="10"/><path d="m747.723 308.516-3.103-1.813" stroke-miterlimit="10"/><path d="m738.457 303.158-44.155-25.502-53.38-30.819-53.42-30.82-53.38-30.819-53.42-30.86-53.38-30.819-53.42-30.8195-53.38-30.8597-47.217-27.2338" stroke-dasharray="7.11 7.11" stroke-miterlimit="10"/><path d="m270.203 32.7931-3.102-1.7726" stroke-miterlimit="10"/><path d="m747.722 370.154-3.102-1.772" stroke-miterlimit="10"/><path d="m738.416 364.796-44.114-25.461-53.38-30.819-53.42-30.86-53.38-30.819-53.42-30.82-53.38-30.819-53.42-30.86-53.38-30.819-53.421-30.8196-47.175-27.2741" stroke-dasharray="7.17 7.17" stroke-miterlimit="10"/><path d="m216.823 63.6527-3.102-1.8129" stroke-miterlimit="10"/><path d="m160.341 92.6995 3.062 1.7726" stroke-miterlimit="10"/><path d="m169.567 98.0173 44.154 25.5017 53.38 30.819 53.421 30.82 53.379 30.859 53.421 30.82 53.38 30.819 53.42 30.86 53.38 30.819 47.256 27.274" stroke-dasharray="7.11 7.11" stroke-miterlimit="10"/><path d="m637.82 368.382 3.102 1.772" stroke-miterlimit="10"/><path d="m694.342 462.653-3.102-1.773" stroke-miterlimit="10"/><path d="m685.036 457.295-44.114-25.462-53.42-30.819-53.38-30.86-53.42-30.819-53.38-30.819-53.421-30.86-53.379-30.82-53.421-30.819-53.38-30.819-47.216-27.274" stroke-dasharray="7.17 7.17" stroke-miterlimit="10"/><path d="m163.403 156.111-3.102-1.773" stroke-miterlimit="10"/><path d="m534.122 431.833-3.102-1.812" stroke-miterlimit="10"/><path d="m524.775 426.435-44.073-25.421-53.38-30.86-53.421-30.819-53.379-30.82-53.421-30.859-53.38-30.82-47.175-27.233" stroke-dasharray="7.19 7.19" stroke-miterlimit="10"/><path d="m163.403 217.79-3.062-1.773" stroke-miterlimit="10"/><path d="m106.921 246.837 3.102 1.772" stroke-miterlimit="10"/><path d="m116.106 252.155 44.235 25.501 53.38 30.86 53.38 30.819 53.42 30.819 53.38 30.86 53.421 30.82 53.38 30.819 47.256 27.274" stroke-dasharray="7.05 7.05" stroke-miterlimit="10"/><path d="m531.02 491.7 3.102 1.772" stroke-miterlimit="10"/><path d="m106.921 308.475 3.102 1.813" stroke-miterlimit="10"/><path d="m116.227 313.874 44.114 25.461 53.38 30.819 53.38 30.82 53.421 30.859 53.379 30.82h.041l53.38 30.819 47.176 27.234" stroke-dasharray="7.19 7.19" stroke-miterlimit="10"/><path d="m477.64 522.519 3.062 1.772" stroke-miterlimit="10"/><path d="m53.5008 339.335 3.1021 1.773" stroke-miterlimit="10"/><path d="m62.7668 344.653 44.1542 25.501 53.42 30.86 47.216 27.234" stroke-dasharray="7.11 7.11" stroke-miterlimit="10"/><path d="m210.619 430.021 3.102 1.812" stroke-miterlimit="10"/><path d="m267.101 462.653 3.102 1.772" stroke-miterlimit="10"/><path d="m276.126 467.85 44.396 25.622 47.337 27.355" stroke-dasharray="6.83 6.83" stroke-miterlimit="10"/><path d="m370.84 522.519 3.062 1.813" stroke-miterlimit="10"/><path d="m53.5008 401.014-3.1021-1.813" stroke-miterlimit="10"/><path d="m43.6709 395.293-37.10416-21.392" stroke-dasharray="7.79 7.79" stroke-miterlimit="10"/><path d="m3.22293 371.927-3.102076-1.773" stroke-miterlimit="10"/></g><path d="m435.178 254.935c-.121 1.853-1.33 3.625-3.666 4.995l-45.927 26.509c-5.439 3.142-14.907 2.739-21.151-.887l-42.865-24.736c-2.981-1.732-4.714-3.867-5.116-6.002-.121-.605-.121-1.209 0-1.813.322-1.652 1.49-3.183 3.585-4.392l18.653-10.756 27.274-15.752c5.439-3.143 14.906-2.74 21.151.886l25.743 14.866 17.122 9.87c3.263 1.894 5.035 4.271 5.156 6.607.041.161.041.403.041.605z" fill="#a47eff"/><path d="m435.178 189.509v65.426c-.121 1.853-1.33 3.626-3.666 4.995l-45.927 26.509c-5.439 3.142-14.906 2.739-21.151-.886l-42.865-24.736c-2.981-1.733-4.714-3.868-5.116-6.003v-65.305z" fill="url(#b)"/><path d="m431.513 196.398-45.927 26.509c-5.439 3.142-14.906 2.739-21.151-.887l-42.865-24.736c-6.244-3.626-6.929-9.105-1.531-12.207l45.927-26.508c5.439-3.143 14.906-2.74 21.151.886l42.865 24.736c6.285 3.626 6.97 9.105 1.531 12.207z" fill="url(#d)"/><path d="m365.602 221.497-43.348-25.018c-4.673-2.7-6.285-6.446-4.553-9.468-2.618 3.143-1.248 7.332 3.868 10.314l42.865 24.736c5.842 3.384 14.423 3.948 19.982 1.49-5.559 1.813-13.375 1.088-18.814-2.054z" fill="#fff" opacity=".3"/><path d="m435.178 183.829c-.121 1.853-1.33 3.626-3.666 4.995l-45.927 26.509c-5.439 3.142-14.907 2.74-21.151-.886l-42.865-24.736c-2.981-1.733-4.714-3.868-5.116-6.003-.121-.604-.121-1.209 0-1.813.322-1.652 1.49-3.183 3.585-4.391l18.653-10.757 27.274-15.752c5.439-3.142 14.906-2.739 21.151.886l25.743 14.866 17.122 9.87c3.263 1.894 5.035 4.271 5.156 6.608.041.161.041.362.041.604z" fill="#a47eff"/><path d="m435.178 118.403v65.426c-.121 1.853-1.33 3.626-3.666 4.995l-45.927 26.509c-5.439 3.142-14.906 2.74-21.151-.886l-42.865-24.736c-2.981-1.733-4.714-3.868-5.116-6.003v-65.305z" fill="url(#e)"/><path d="m431.513 125.292-45.927 26.509c-5.439 3.142-14.906 2.739-21.151-.886l-42.865-24.737c-6.244-3.625-6.929-9.104-1.531-12.206l45.927-26.5091c5.439-3.1424 14.906-2.7395 21.151.8863l42.865 24.7358c6.285 3.626 6.97 9.065 1.531 12.207z" fill="url(#f)"/><path d="m365.602 150.391-43.348-25.018c-4.673-2.7-6.285-6.446-4.553-9.468-2.618 3.143-1.248 7.332 3.868 10.314l42.865 24.736c5.842 3.384 14.423 3.948 19.982 1.49-5.559 1.813-13.375 1.048-18.814-2.054z" fill="#fff" opacity=".3"/><path d="m435.178 113.126c-.121 1.853-1.33 3.625-3.667 4.995l-45.926 26.509c-5.439 3.142-14.907 2.739-21.151-.886l-42.865-24.736c-2.981-1.733-4.714-3.868-5.117-6.003-.12-.604-.12-1.209 0-1.813.323-1.652 1.491-3.183 3.586-4.391l18.653-10.7569 27.274-15.7521c5.439-3.1424 14.906-2.7395 21.15.8863l25.744 14.8658 17.122 9.8699c3.263 1.894 5.035 4.271 5.156 6.607.041.162.041.403.041.605z" fill="#a47eff"/><path d="m435.178 47.7v65.426c-.121 1.853-1.33 3.625-3.666 4.995l-45.927 26.509c-5.439 3.142-14.907 2.739-21.151-.886l-42.865-24.736c-2.981-1.733-4.714-3.868-5.116-6.003v-65.305z" fill="url(#g)"/><path d="m431.513 54.6288-45.927 26.5087c-5.439 3.1424-14.906 2.7395-21.15-.8863l-42.866-24.7361c-6.244-3.6258-6.929-9.1048-1.53-12.2069l45.926-26.5087c5.439-3.1423 14.907-2.7395 21.151.8863l42.865 24.7361c6.285 3.5855 6.97 9.0645 1.531 12.2069z" fill="url(#h)"/><path d="m365.602 79.6874-43.348-25.0181c-4.673-2.6992-6.285-6.4459-4.553-9.4674-2.618 3.1424-1.248 7.3322 3.868 10.3134l42.865 24.7361c5.842 3.3841 14.423 3.9481 19.982 1.4906-5.559 1.8129-13.375 1.0877-18.814-2.0546z" fill="#fff" opacity=".3"/><path d="m504.995 296.188c-.121 1.854-1.33 3.626-3.666 4.996l-45.927 26.509c-5.439 3.142-14.906 2.739-21.151-.887l-42.865-24.736c-2.981-1.732-4.714-3.867-5.116-6.002-.121-.605-.121-1.209 0-1.813.322-1.652 1.49-3.183 3.585-4.392l18.653-10.756 27.274-15.752c5.439-3.143 14.906-2.74 21.151.886l25.743 14.866 17.122 9.87c3.263 1.894 5.036 4.27 5.156 6.607.041.202.041.403.041.604z" fill="#a47eff"/><path d="m504.995 230.763v65.425c-.121 1.854-1.33 3.626-3.666 4.996l-45.927 26.509c-5.439 3.142-14.906 2.739-21.151-.887l-42.865-24.736c-2.981-1.732-4.714-3.867-5.116-6.002v-65.305z" fill="url(#i)"/><path d="m501.33 237.692-45.927 26.509c-5.439 3.142-14.906 2.739-21.15-.887l-42.866-24.736c-6.244-3.625-6.929-9.104-1.53-12.207l45.926-26.508c5.439-3.143 14.907-2.74 21.151.886l42.865 24.736c6.285 3.586 6.97 9.065 1.531 12.207z" fill="url(#j)"/><path d="m435.419 262.75-43.348-25.018c-4.673-2.699-6.285-6.446-4.553-9.467-2.618 3.142-1.248 7.332 3.868 10.313l42.865 24.736c5.842 3.384 14.423 3.948 19.982 1.491-5.559 1.813-13.375 1.088-18.814-2.055z" fill="#fff" opacity=".3"/><path d="m504.995 225.082c-.121 1.854-1.33 3.626-3.666 4.996l-45.927 26.509c-5.439 3.142-14.906 2.739-21.151-.887l-42.865-24.736c-2.981-1.732-4.714-3.867-5.116-6.002-.121-.605-.121-1.209 0-1.813.322-1.652 1.49-3.183 3.585-4.392l18.653-10.756 27.274-15.752c5.439-3.143 14.906-2.74 21.151.886l25.743 14.866 17.122 9.87c3.263 1.894 5.036 4.271 5.156 6.607.041.161.041.403.041.604z" fill="#a47eff"/><path d="m504.995 159.657v65.426c-.121 1.853-1.33 3.625-3.666 4.995l-45.927 26.509c-5.439 3.142-14.906 2.739-21.151-.886l-42.865-24.736c-2.981-1.733-4.714-3.868-5.116-6.003v-65.305z" fill="url(#l)"/><path d="m501.33 166.546-45.927 26.509c-5.439 3.142-14.906 2.739-21.15-.887l-42.866-24.736c-6.244-3.626-6.929-9.105-1.53-12.207l45.926-26.508c5.439-3.143 14.907-2.74 21.151.886l42.865 24.736c6.285 3.626 6.97 9.105 1.531 12.207z" fill="#4e1caf"/><path d="m435.419 191.645-43.348-25.018c-4.673-2.7-6.285-6.446-4.553-9.468-2.618 3.143-1.248 7.332 3.868 10.314l42.865 24.736c5.842 3.384 14.423 3.948 19.982 1.49-5.559 1.813-13.375 1.088-18.814-2.054z" fill="#fff" opacity=".3"/><path d="m574.57 267.263c-.121 1.853-1.33 3.626-3.666 4.995l-45.927 26.509c-5.439 3.143-14.906 2.74-21.151-.886l-42.865-24.736c-2.981-1.733-4.713-3.868-5.116-6.003-.121-.604-.121-1.209 0-1.813.322-1.652 1.49-3.183 3.585-4.391l18.653-10.757 27.274-15.752c5.439-3.142 14.906-2.739 21.151.886l25.743 14.866 17.122 9.871c3.263 1.893 5.036 4.27 5.157 6.607.04.201.04.402.04.604z" fill="#a47eff"/><path d="m574.449 267.464c-.121 1.853-1.329 3.626-3.666 4.996l-45.927 26.508c-5.439 3.143-14.906 2.74-21.151-.886l-42.824-24.776c-2.982-1.733-4.714-3.868-5.117-6.003-.121-.604-.121-1.209 0-1.813.322-1.652 1.491-3.183 3.586-4.391l18.652-10.757 27.275-15.752c5.438-3.142 14.906-2.739 21.15.886l25.743 14.866 17.122 9.87c3.264 1.894 5.036 4.271 5.157 6.607.04.202.04.444 0 .645z" fill="#a47eff"/><path d="m574.449 203.288v64.177c-.12 1.853-1.329 3.625-3.666 4.995l-45.927 26.509c-5.438 3.142-14.906 2.739-21.15-.886l-42.825-24.777c-2.981-1.732-4.714-3.867-5.076-6.003v-65.264c.322-1.652 1.49-3.223 3.585-4.432l45.887-26.508c5.439-3.143 14.906-2.74 21.151.886l42.865 24.736c3.263 1.893 5.036 4.27 5.156 6.567z" fill="url(#m)" opacity=".6"/><path d="m574.451 203.932c-.121 1.893-1.289 3.666-3.666 5.036l-45.887 26.508c-5.438 3.143-14.906 2.74-21.15-.886l-42.865-24.776c-2.982-1.733-4.714-3.868-5.076-6.003-.121-.604-.121-1.209 0-1.813.322-1.652 1.49-3.223 3.585-4.431l45.887-26.509c5.438-3.143 14.906-2.74 21.15.886l42.865 24.736c3.264 1.894 4.996 4.271 5.157 6.567.04.242.04.483 0 .685z" fill="url(#n)" opacity=".5"/><path d="m574.449 203.288c-.121-1.692-1.088-3.425-2.901-4.956 1.048 1.209 1.612 2.498 1.692 3.747v.604c-.12 1.894-1.289 3.666-3.666 5.036l-45.886 26.509c-5.439 3.142-14.906 2.739-21.151-.887l-42.865-24.736c-.886-.483-1.611-1.047-2.296-1.611.846 1.007 2.014 1.974 3.505 2.82l42.865 24.736c6.244 3.626 15.752 4.029 21.15.886l45.887-26.508c2.337-1.37 3.545-3.143 3.666-5.036.04-.161.04-.403 0-.604z" fill="#fff" opacity=".2"/><path d="m574.167 338.086c-.121 1.854-1.329 3.626-3.666 4.996l-45.927 26.509c-5.439 3.142-14.906 2.739-21.151-.887l-42.865-24.736c-2.981-1.732-4.713-3.867-5.116-6.002-.121-.605-.121-1.209 0-1.813.322-1.652 1.491-3.183 3.585-4.392l18.653-10.756 27.274-15.752c5.439-3.143 14.907-2.74 21.151.886l25.743 14.866 17.122 9.87c3.263 1.894 5.036 4.27 5.157 6.607.04.161.04.363.04.604z" fill="#a47eff"/><path d="m574.086 338.248c-.12 1.853-1.329 3.625-3.666 4.995l-45.927 26.509c-5.438 3.142-14.906 2.739-21.15-.887l-42.865-24.736c-2.981-1.732-4.714-3.867-5.117-6.002-.12-.605-.12-1.209 0-1.813.323-1.652 1.491-3.183 3.586-4.391l18.653-10.757 27.274-15.752c5.439-3.143 14.906-2.74 21.15.886l25.744 14.866 17.121 9.87c3.264 1.894 5.036 4.271 5.157 6.607.04.202.04.403.04.605z" fill="#a47eff"/><path d="m574.087 274.111v64.177c-.121 1.853-1.33 3.626-3.666 4.996l-45.927 26.509c-5.439 3.142-14.906 2.739-21.151-.887l-42.865-24.776c-2.981-1.732-4.713-3.868-5.076-6.003v-65.305c.322-1.651 1.491-3.223 3.586-4.431l45.886-26.509c5.439-3.142 14.906-2.739 21.151.886l42.865 24.736c3.263 1.894 5.036 4.311 5.197 6.607z" fill="url(#o)" opacity=".6"/><path d="m536.217 323.946 18.048 10.434c1.29.766 2.095 1.732 2.216 2.74.121 1.007-.443 1.893-1.571 2.538l-39.521 22.641c-1.128.644-2.7.967-4.472.886-1.733-.08-3.425-.524-4.714-1.289l-18.048-10.434c-1.289-.766-2.095-1.733-2.216-2.74s.443-1.893 1.571-2.538l39.521-22.641c1.129-.645 2.7-.967 4.432-.886 1.773.08 3.424.523 4.754 1.289z" fill="url(#q)" opacity=".09"/><path d="m546.289 305.172 18.048 10.435c1.289.765 2.095 1.732 2.216 2.739s-.443 1.894-1.571 2.538l-39.522 22.641c-1.128.645-2.699.967-4.472.887-1.772-.081-3.424-.524-4.713-1.289l-18.049-10.435c-1.289-.765-2.094-1.732-2.215-2.739s.443-1.894 1.571-2.538l39.521-22.641c1.128-.645 2.699-.967 4.432-.887 1.772.081 3.424.524 4.754 1.289z" fill="#2e2553"/><path d="m566.553 318.709v-2.458l-2.055 1.733z" fill="#2e2553"/><path d="m546.289 302.957 18.048 10.434c1.289.765 2.095 1.732 2.216 2.739.121 1.008-.443 1.894-1.571 2.538l-39.522 22.642c-1.128.644-2.699.967-4.472.886-1.732-.081-3.424-.524-4.713-1.289l-18.049-10.435c-1.289-.765-2.094-1.732-2.215-2.739s.443-1.893 1.571-2.538l39.521-22.641c1.128-.645 2.699-.967 4.432-.887 1.772.081 3.424.524 4.754 1.29z" fill="#ebf7fd"/><path d="m545.201 303.561c-2.015-1.168-5.076-1.289-6.809-.282l-39.521 22.641c-1.732 1.007-1.531 2.78.483 3.948l18.049 10.435c2.014 1.168 5.076 1.289 6.808.282l39.522-22.642c1.732-1.007 1.531-2.779-.484-3.948l-2.296-1.329-.766.443c-.725.403-2.014.363-2.86-.121l-10.354-6.003c-.846-.483-.926-1.249-.201-1.651l.765-.444z" fill="#2e2553"/><path d="m556.763 311.175c-.161.081-.443.081-.644-.04-.202-.121-.202-.282-.041-.363.161-.08.443-.08.645.041.161.12.201.282.04.362z" fill="#2e2553"/><path d="m555.675 310.571c-.161.081-.443.081-.644-.04l-4.069-2.337c-.202-.121-.202-.282-.04-.362.161-.081.443-.081.644.04l4.069 2.336c.161.121.202.282.04.363z" fill="#2e2553"/><path d="m574.088 274.716c-.12 1.893-1.289 3.666-3.666 5.035l-45.886 26.509c-5.439 3.142-14.906 2.74-21.151-.886l-42.905-24.777c-2.982-1.732-4.714-3.867-5.076-6.002-.121-.605-.121-1.209 0-1.813.322-1.652 1.49-3.223 3.585-4.432l45.887-26.508c5.438-3.143 14.906-2.74 21.15.886l42.865 24.736c3.264 1.893 4.996 4.27 5.157 6.567.04.282.04.483.04.685z" fill="url(#r)" opacity=".5"/><path d="m574.086 274.111c-.12-1.692-1.087-3.424-2.9-4.955 1.047 1.209 1.611 2.498 1.692 3.747v.604c-.121 1.893-1.289 3.666-3.666 5.036l-45.887 26.509c-5.439 3.142-14.906 2.739-21.15-.887l-42.906-24.776c-.886-.484-1.611-1.048-2.296-1.612.846 1.008 2.014 1.974 3.505 2.82l42.865 24.737c6.244 3.625 15.752 4.028 21.15.886l45.887-26.509c2.337-1.37 3.545-3.142 3.666-5.036.04-.161.04-.362.04-.564z" fill="#fff" opacity=".2"/><path d="m574.368 266.215c-.12 1.853-1.329 3.626-3.666 4.996l-45.927 26.508c-5.438 3.143-14.906 2.74-21.15-.886l-42.865-24.736c-2.981-1.732-4.714-3.868-5.117-6.003-.121-.604-.121-1.208 0-1.813.323-1.651 1.491-3.182 3.586-4.391l18.653-10.757 27.274-15.752c5.439-3.142 14.906-2.739 21.15.887l25.744 14.865 17.121 9.871c3.264 1.893 5.036 4.27 5.157 6.607.081.201.081.403.04.604z" fill="#330a66"/><path d="m574.368 256.909c-.12 1.853-1.329 3.626-3.666 4.995l-45.927 26.509c-5.438 3.143-14.906 2.74-21.15-.886l-42.865-24.736c-2.981-1.733-4.714-3.868-5.117-6.003-.121-.604-.121-1.209 0-1.813.323-1.652 1.491-3.183 3.586-4.391l18.653-10.757 27.274-15.752c5.439-3.142 14.906-2.739 21.15.886l25.744 14.866 17.121 9.871c3.264 1.893 5.036 4.27 5.157 6.607.081.161.081.362.04.604z" stroke="#43e8e1" stroke-miterlimit="10" stroke-width="1.2086"/><path d="m574.368 245.347c-.12 1.853-1.329 3.625-3.666 4.995l-45.927 26.509c-5.438 3.142-14.906 2.739-21.15-.886l-42.865-24.737c-2.981-1.732-4.714-3.867-5.117-6.002-.121-.605-.121-1.209 0-1.813.323-1.652 1.491-3.183 3.586-4.391l18.653-10.757 27.274-15.752c5.439-3.142 14.906-2.74 21.15.886l25.744 14.866 17.121 9.87c3.264 1.894 5.036 4.271 5.157 6.607.081.202.081.403.04.605z" stroke="#43e8e1" stroke-miterlimit="10" stroke-width="1.2086"/><path d="m574.368 233.825c-.12 1.853-1.329 3.625-3.666 4.995l-45.927 26.509c-5.438 3.142-14.906 2.739-21.15-.886l-42.825-24.736c-2.981-1.733-4.714-3.868-5.116-6.003-.121-.605-.121-1.209 0-1.813.322-1.652 1.49-3.183 3.585-4.391l18.653-10.757 27.274-15.752c5.439-3.142 14.906-2.74 21.151.886l25.743 14.866 17.122 9.87c3.263 1.894 5.036 4.271 5.156 6.607.041.202.041.403 0 .605z" stroke="#43e8e1" stroke-miterlimit="10" stroke-width="1.2086"/><path d="m574.368 222.302c-.12 1.854-1.329 3.626-3.666 4.996l-45.927 26.509c-5.438 3.142-14.906 2.739-21.15-.887l-42.865-24.736c-2.981-1.732-4.714-3.867-5.117-6.002-.121-.605-.121-1.209 0-1.813.323-1.652 1.491-3.183 3.586-4.392l18.653-10.756 27.274-15.752c5.439-3.143 14.906-2.74 21.15.886l25.744 14.866 17.121 9.87c3.264 1.894 5.036 4.271 5.157 6.607.081.202.081.403.04.604z" stroke="#43e8e1" stroke-miterlimit="10" stroke-width="1.2086"/><path d="m574.368 210.781c-.12 1.853-1.329 3.626-3.666 4.995l-45.927 26.509c-5.438 3.142-14.906 2.739-21.15-.886l-42.865-24.736c-2.981-1.733-4.714-3.868-5.117-6.003-.121-.604-.121-1.209 0-1.813.323-1.652 1.491-3.183 3.586-4.391l18.653-10.757 27.274-15.752c5.439-3.142 14.906-2.74 21.15.886l25.744 14.866 17.121 9.87c3.264 1.894 5.036 4.271 5.157 6.607.081.202.081.403.04.605z" stroke="#43e8e1" stroke-miterlimit="10" stroke-width="1.2086"/><path d="m570.743 207.719-45.926 26.509c-5.439 3.142-14.907 2.739-21.151-.887l-42.865-24.736c-6.245-3.626-6.929-9.105-1.531-12.207l45.927-26.508c5.439-3.143 14.906-2.74 21.15.886l42.866 24.736c6.284 3.586 6.929 9.065 1.53 12.207z" fill="#330a66"/><path d="m504.833 232.777-43.348-25.018c-4.673-2.699-6.285-6.446-4.553-9.467-2.618 3.142-1.248 7.332 3.868 10.313l42.865 24.736c5.842 3.384 14.423 3.948 19.982 1.491-5.559 1.813-13.375 1.087-18.814-2.055z" fill="#fff" opacity=".3"/><path d="m364.031 297.075c-.121 1.853-1.329 3.625-3.666 4.995l-45.927 26.509c-5.438 3.142-14.906 2.739-21.15-.886l-42.825-24.736c-2.981-1.733-4.714-3.868-5.117-6.003-.12-.605-.12-1.209 0-1.813.323-1.652 1.491-3.183 3.586-4.391l18.653-10.757 27.274-15.752c5.439-3.142 14.906-2.74 21.15.886l25.744 14.866 17.122 9.87c3.263 1.894 5.035 4.271 5.156 6.607.041.202.041.403 0 .605z" fill="#a47eff"/><path d="m364.031 231.649v65.426c-.121 1.853-1.329 3.625-3.666 4.995l-45.927 26.509c-5.438 3.142-14.906 2.739-21.15-.886l-42.825-24.736c-2.981-1.733-4.714-3.868-5.117-6.003v-65.305z" fill="url(#s)"/><path d="m360.407 238.579-45.927 26.508c-5.439 3.143-14.906 2.74-21.151-.886l-42.865-24.736c-6.244-3.626-6.929-9.105-1.531-12.207l45.927-26.509c5.439-3.142 14.906-2.739 21.151.887l42.865 24.736c6.285 3.585 6.929 9.064 1.531 12.207z" fill="url(#t)"/><path d="m294.496 263.637-43.348-25.018c-4.674-2.699-6.285-6.446-4.553-9.468-2.618 3.143-1.249 7.333 3.868 10.314l42.865 24.736c5.842 3.384 14.423 3.948 19.982 1.49-5.559 1.813-13.375 1.088-18.814-2.054z" fill="#fff" opacity=".3"/><path d="m364.031 225.969c-.121 1.853-1.329 3.626-3.666 4.995l-45.927 26.509c-5.438 3.142-14.906 2.739-21.15-.886l-42.865-24.736c-2.982-1.733-4.714-3.868-5.117-6.003-.121-.604-.121-1.209 0-1.813.322-1.652 1.491-3.183 3.586-4.391l18.652-10.757 27.275-15.752c5.438-3.142 14.906-2.74 21.15.886l25.743 14.866 17.122 9.87c3.263 1.894 5.036 4.271 5.157 6.607.081.162.081.363.04.605z" fill="#a47eff"/><path d="m364.031 160.543v65.426c-.121 1.853-1.329 3.626-3.666 4.995l-45.927 26.509c-5.439 3.143-14.906 2.74-21.15-.886l-42.865-24.736c-2.982-1.733-4.714-3.868-5.117-6.003v-65.305z" fill="url(#u)"/><path d="m360.407 167.432-45.927 26.509c-5.438 3.142-14.906 2.739-21.15-.887l-42.865-24.736c-6.245-3.625-6.93-9.104-1.531-12.207l45.927-26.508c5.438-3.143 14.906-2.74 21.15.886l42.865 24.736c6.285 3.626 6.93 9.065 1.531 12.207z" fill="url(#v)"/><path d="m294.496 192.531-43.348-25.018c-4.674-2.7-6.285-6.446-4.553-9.468-2.618 3.143-1.249 7.332 3.868 10.314l42.865 24.736c5.841 3.384 14.423 3.948 19.982 1.49-5.559 1.813-13.375 1.088-18.814-2.054z" fill="#fff" opacity=".3"/><path d="m363.387 153.694c-.121 1.853-1.33 3.626-3.666 4.996l-45.927 26.508c-5.439 3.143-14.906 2.74-21.151-.886l-42.865-24.736c-2.981-1.732-4.714-3.868-5.116-6.003-.121-.604-.121-1.208 0-1.813.322-1.651 1.49-3.182 3.585-4.391l18.653-10.757 27.274-15.752c5.439-3.142 14.906-2.739 21.151.887l25.743 14.865 17.122 9.871c3.263 1.893 5.036 4.27 5.156 6.607.081.201.081.403.041.604z" fill="#a47eff"/><path d="m363.306 153.895c-.121 1.854-1.329 3.626-3.666 4.996l-45.927 26.509c-5.439 3.142-14.906 2.739-21.15-.887l-42.866-24.736c-2.981-1.732-4.713-3.867-5.116-6.002-.121-.605-.121-1.209 0-1.813.322-1.652 1.491-3.183 3.585-4.392l18.653-10.756 27.274-15.752c5.439-3.143 14.907-2.74 21.151.886l25.743 14.866 17.162 9.83c3.264 1.893 5.036 4.27 5.157 6.607.04.201.04.443 0 .644z" fill="#a47eff"/><path d="m363.306 89.7189v64.1771c-.12 1.853-1.329 3.626-3.666 4.995l-45.927 26.509c-5.438 3.142-14.906 2.739-21.15-.886l-42.865-24.736c-2.981-1.733-4.714-3.868-5.076-6.003v-65.305c.322-1.6518 1.49-3.2229 3.585-4.4315l45.887-26.5087c5.439-3.1424 14.906-2.7395 21.15.8863l42.906 24.736c3.263 1.8935 4.995 4.2704 5.156 6.5668z" fill="url(#w)" opacity=".6"/><path d="m363.307 90.3635c-.12 1.8935-1.289 3.6661-3.666 5.0358l-45.886 26.5087c-5.439 3.142-14.906 2.74-21.151-.886l-42.865-24.7364c-2.981-1.7323-4.714-3.8675-5.076-6.0027-.121-.6043-.121-1.2086 0-1.8129.322-1.6518 1.491-3.2229 3.585-4.4315l45.847-26.5087c5.438-3.1424 14.906-2.7395 21.15.8863l42.906 24.736c3.263 1.8935 4.995 4.2704 5.156 6.5668 0 .2014.041.4431 0 .6446z" fill="url(#x)" opacity=".5"/><path d="m363.306 89.7187c-.121-1.692-1.088-3.4244-2.901-4.9553 1.048 1.2086 1.612 2.4978 1.692 3.7467v.6043c-.12 1.8935-1.289 3.6661-3.666 5.0358l-45.886 26.5088c-5.439 3.142-14.906 2.739-21.151-.886l-42.865-24.7364c-.886-.4835-1.611-1.0475-2.296-1.6115.846 1.0072 2.014 1.974 3.505 2.8201l42.865 24.7358c6.244 3.626 15.752 4.029 21.15.887l45.887-26.5092c2.337-1.3697 3.545-3.1423 3.666-5.0358.04-.1611 0-.4029 0-.6043z" fill="#fff" opacity=".2"/><path d="m507.21 154.742c-.12 1.853-1.329 3.626-3.666 4.995l-45.927 26.509c-5.438 3.143-14.906 2.74-21.15-.886l-42.865-24.736c-2.981-1.733-4.714-3.868-5.117-6.003-.121-.604-.121-1.209 0-1.813.323-1.652 1.491-3.183 3.586-4.391l18.653-10.757 27.274-15.752c5.438-3.142 14.906-2.739 21.15.886l25.744 14.866 17.121 9.871c3.264 1.893 5.036 4.27 5.157 6.607.081.161.081.362.04.604z" fill="#a47eff"/><path d="m507.21 89.3162v65.4258c-.12 1.893-1.329 3.626-3.666 4.995l-41.334 23.85-4.593 2.659c-5.438 3.142-14.906 2.74-21.15-.886l-42.865-24.736c-2.982-1.733-4.714-3.868-5.117-6.003v-65.3048z" fill="url(#y)"/><path d="m507.21 114.576v40.166c-.12 1.893-1.329 3.625-3.666 4.995l-41.334 23.85 36.46-83.7965z" fill="url(#z)"/><path d="m503.586 96.2052-45.927 26.5088c-5.439 3.142-14.906 2.739-21.151-.886l-42.865-24.7365c-6.245-3.6258-6.929-9.1048-1.531-12.2069l45.927-26.5086c5.439-3.1424 14.906-2.7395 21.151.8863l42.865 24.736c6.244 3.6258 6.929 9.0646 1.531 12.2069z" fill="url(#A)"/><path d="m437.675 121.304-43.348-25.0183c-4.673-2.6992-6.285-6.4458-4.553-9.4673-2.618 3.1423-1.248 7.3322 3.868 10.3134l42.865 24.7362c5.842 3.384 14.423 3.948 19.982 1.49-5.6 1.813-13.415 1.048-18.814-2.054z" fill="#fff" opacity=".3"/><path d="m433.848 338.369c-.121 1.853-1.329 3.626-3.666 4.995l-45.927 26.509c-5.439 3.142-14.906 2.74-21.15-.886l-42.825-24.777c-2.981-1.732-4.714-3.867-5.117-6.002-.12-.605-.12-1.209 0-1.813.323-1.652 1.491-3.183 3.586-4.391l18.653-10.757 27.274-15.752c5.439-3.143 14.906-2.74 21.15.886l25.744 14.866 17.121 9.87c3.264 1.894 5.036 4.271 5.157 6.607.04.202.04.403 0 .645z" fill="#a47eff"/><path d="m433.848 272.903v65.425c-.121 1.853-1.329 3.626-3.666 4.996l-45.927 26.509c-5.439 3.142-14.906 2.739-21.15-.887l-42.825-24.736c-2.981-1.732-4.714-3.867-5.117-6.003v-65.304z" fill="url(#B)"/><path d="m430.224 279.832-45.927 26.509c-5.439 3.142-14.906 2.739-21.151-.887l-42.865-24.736c-6.244-3.626-6.929-9.105-1.531-12.207l45.927-26.508c5.439-3.143 14.906-2.74 21.151.886l42.865 24.736c6.244 3.586 6.929 9.065 1.531 12.207z" fill="url(#C)"/><path d="m364.273 304.931-43.349-25.019c-4.673-2.699-6.284-6.445-4.552-9.467-2.619 3.142-1.249 7.332 3.867 10.313l42.866 24.737c5.841 3.384 14.422 3.948 19.982 1.49-5.56 1.813-13.375 1.048-18.814-2.054z" fill="#fff" opacity=".3"/><path d="m434.009 266.094c-.12 1.853-1.329 3.626-3.666 4.996l-45.927 26.508c-5.438 3.143-14.906 2.74-21.15-.886l-42.865-24.776c-2.982-1.733-4.714-3.868-5.117-6.003-.121-.604-.121-1.209 0-1.813.323-1.652 1.491-3.183 3.586-4.391l18.653-10.757 27.274-15.752c5.438-3.142 14.906-2.739 21.15.886l25.744 14.866 17.121 9.871c3.264 1.893 5.036 4.27 5.157 6.607.04.201.04.402.04.644z" fill="#a47eff"/><path d="m434.009 200.628v65.426c-.12 1.853-1.329 3.626-3.666 4.995l-45.927 26.509c-1.289.766-2.86 1.289-4.552 1.652-4.15.886-9.145.483-13.375-1.048-1.128-.402-2.256-.926-3.264-1.49l-.08-.04-31.545-18.25-11.159-6.446c-2.981-1.733-4.714-3.868-5.116-6.003v-65.305z" fill="url(#D)"/><path d="m379.904 299.21c-4.149.886-9.145.483-13.375-1.047l-3.344-1.531-31.585-18.25 25.824-28.966 14.02 21.835c5.318 8.38 8.259 18.048 8.46 27.959z" fill="url(#F)" opacity=".5"/><path d="m430.344 207.558-45.926 26.508c-5.439 3.143-14.907 2.74-21.151-.886l-42.865-24.736c-6.245-3.626-6.929-9.105-1.531-12.207l45.927-26.509c5.439-3.142 14.906-2.739 21.15.887l42.866 24.736c6.284 3.626 6.969 9.064 1.53 12.207z" fill="url(#G)"/><path d="m364.434 232.656-43.348-25.018c-4.674-2.699-6.285-6.446-4.553-9.467-2.618 3.142-1.249 7.332 3.868 10.313l42.865 24.736c5.841 3.384 14.422 3.948 19.982 1.491-5.56 1.813-13.375 1.047-18.814-2.055z" fill="#fff" opacity=".3"/><path d="m503.665 379.622c-.121 1.853-1.329 3.626-3.666 4.996l-45.927 26.509c-5.439 3.142-14.906 2.739-21.15-.887l-42.866-24.736c-2.981-1.732-4.713-3.867-5.116-6.003-.121-.604-.121-1.208 0-1.812.322-1.652 1.491-3.183 3.586-4.392l18.652-10.756 27.274-15.752c5.439-3.143 14.907-2.74 21.151.886l25.743 14.866 17.122 9.87c3.263 1.893 5.036 4.27 5.157 6.607.04.161.04.403.04.604z" fill="#a47eff"/><path d="m503.665 314.197v65.425c-.121 1.854-1.329 3.626-3.666 4.996l-45.927 26.509c-5.439 3.142-14.906 2.739-21.15-.887l-42.866-24.736c-2.981-1.732-4.713-3.867-5.116-6.002v-65.305z" fill="url(#H)"/><path d="m500 321.086-45.927 26.509c-5.438 3.142-14.906 2.739-21.15-.887l-42.865-24.736c-6.245-3.626-6.93-9.105-1.531-12.207l45.927-26.508c5.439-3.143 14.906-2.74 21.15.886l42.865 24.736c6.285 3.626 6.97 9.105 1.531 12.207z" fill="#4e1caf"/><path d="m434.09 346.184-43.349-25.018c-4.673-2.699-6.284-6.446-4.552-9.467-2.619 3.142-1.249 7.332 3.868 10.313l42.865 24.736c5.841 3.385 14.422 3.949 19.982 1.491-5.56 1.813-13.375 1.088-18.814-2.055z" fill="#fff" opacity=".3"/><path d="m291.152 337.926c-.12 1.853-1.329 3.626-3.666 4.995l-45.927 26.509c-5.438 3.142-14.906 2.739-21.15-.886l-42.865-24.736c-2.981-1.733-4.714-3.868-5.117-6.003-.12-.604-.12-1.209 0-1.813.323-1.652 1.491-3.183 3.586-4.391l18.653-10.757 27.274-15.752c5.439-3.142 14.906-2.739 21.15.886l25.744 14.866 17.121 9.87c3.264 1.894 5.036 4.271 5.157 6.607.081.162.081.363.04.605z" fill="#a47eff"/><path d="m291.152 272.5v65.426c-.12 1.853-1.329 3.626-3.666 4.996l-45.927 26.508c-5.438 3.143-14.906 2.74-21.15-.886l-42.865-24.736c-2.981-1.733-4.714-3.868-5.117-6.003v-65.305z" fill="url(#I)"/><path d="m287.528 279.389-45.927 26.509c-5.439 3.142-14.906 2.739-21.151-.887l-42.865-24.736c-6.244-3.625-6.929-9.104-1.531-12.206l45.927-26.509c5.439-3.143 14.906-2.74 21.151.886l42.865 24.736c6.284 3.626 6.929 9.065 1.531 12.207z" fill="url(#J)"/><path d="m221.617 304.488-43.348-25.018c-4.673-2.699-6.285-6.446-4.552-9.468-2.619 3.143-1.249 7.333 3.867 10.314l42.865 24.736c5.842 3.384 14.423 3.948 19.982 1.491-5.559 1.812-13.375 1.047-18.814-2.055z" fill="#fff" opacity=".3"/><path d="m291.152 266.779c-.12 1.853-1.329 3.626-3.666 4.996l-45.927 26.508c-5.438 3.143-14.906 2.74-21.15-.886l-42.865-24.736c-2.981-1.732-4.714-3.868-5.117-6.003-.12-.604-.12-1.208 0-1.813.323-1.652 1.491-3.182 3.586-4.391l18.653-10.757 27.274-15.752c5.439-3.142 14.906-2.739 21.15.887l25.744 14.865 17.121 9.871c3.264 1.893 5.036 4.27 5.157 6.607.081.201.081.403.04.604z" fill="#a47eff"/><path d="m291.152 201.354v65.425c-.12 1.853-1.329 3.626-3.666 4.996l-45.927 26.508c-5.438 3.143-14.906 2.74-21.15-.886l-42.865-24.736c-2.981-1.732-4.714-3.867-5.117-6.003v-65.304z" fill="url(#K)"/><path d="m287.528 208.283-45.927 26.508c-5.439 3.143-14.906 2.74-21.151-.886l-42.865-24.736c-6.244-3.626-6.929-9.105-1.531-12.207l45.927-26.549c5.439-3.142 14.906-2.739 21.151.886l42.865 24.736c6.284 3.626 6.929 9.105 1.531 12.248z" fill="url(#L)"/><path d="m221.617 233.341-43.348-25.018c-4.673-2.699-6.285-6.446-4.552-9.468-2.619 3.143-1.249 7.333 3.867 10.314l42.865 24.736c5.842 3.384 14.423 3.948 19.982 1.491-5.559 1.812-13.375 1.087-18.814-2.055z" fill="#fff" opacity=".3"/><path d="m291.555 195.713c-.121 1.854-1.329 3.626-3.666 4.996l-45.927 26.509c-5.438 3.142-14.906 2.739-21.15-.887l-42.865-24.736c-2.982-1.732-4.714-3.867-5.117-6.003-.121-.604-.121-1.208 0-1.812.323-1.652 1.491-3.183 3.586-4.392l18.653-10.756 27.274-15.752c5.438-3.143 14.906-2.74 21.15.886l25.743 14.866 17.122 9.87c3.264 1.893 5.036 4.27 5.157 6.607.04.201.04.403.04.604z" fill="#a47eff"/><path d="m291.434 195.915c-.12 1.853-1.329 3.626-3.666 4.996l-45.927 26.508c-5.438 3.143-14.906 2.74-21.15-.886l-42.865-24.736c-2.981-1.732-4.714-3.868-5.117-6.003-.121-.604-.121-1.208 0-1.813.323-1.652 1.491-3.182 3.586-4.391l18.653-10.757 27.274-15.752c5.438-3.142 14.906-2.739 21.15.887l25.744 14.865 17.121 9.871c3.264 1.893 5.036 4.27 5.157 6.607.081.161.081.403.04.604z" fill="#a47eff"/><path d="m291.435 131.738v64.177c-.121 1.853-1.33 3.626-3.666 4.996l-45.927 26.508c-5.439 3.143-14.906 2.74-21.151-.886l-42.865-24.736c-2.981-1.732-4.713-3.868-5.076-6.003v-65.305c.322-1.651 1.491-3.223 3.586-4.431l45.886-26.5089c5.439-3.1424 14.906-2.7396 21.151.8859l42.865 24.736c3.303 1.894 5.076 4.271 5.197 6.567z" fill="url(#M)" opacity=".6"/><path d="m265.409 193.175c-7.09 5.681-40.77 13.577-40.77 13.577s7.171-20.949 14.262-26.63c7.09-5.68 13.415-2.215 20.707 1.37 7.332 3.626 12.892 6.003 5.801 11.683z" fill="url(#N)" opacity=".5"/><path d="m243.977 169.648c-6.688-3.787-13.255-10.273-18.734-18.492l-.08-.04c-5.479 1.893-12.046.806-18.734-3.143l-.241-.161.362 12.529c1.289 19.419 7.896 27.879 18.532 45.927l.242.162c10.676-5.761 17.283-6.567 18.532-24.495l.362-12.126z" fill="#a8cff0"/><path d="m247.765 166.787c-6.688-3.787-13.254-10.273-18.733-18.491l-.081-.041c-5.479 1.894-12.046.806-18.733-3.142l-.242-.161-3.706 2.941.201.121c6.688 3.948 13.254 5.036 18.733 3.142l.081.04c5.479 8.259 12.046 14.705 18.733 18.492l.242.161-.363 12.126c-.846 11.724-3.948 16.115-8.943 19.378 6.284-3.706 11.804-9.104 12.73-22.238l.363-12.126z" fill="#d1ebff"/><path d="m248.005 166.949-.241-.161c-6.688-3.787-13.255-10.274-18.734-18.492l-.08-.04-3.787 2.9.08.041c5.479 8.258 12.046 14.704 18.734 18.491l.241.161z" fill="#d1ebff"/><path d="m244.218 169.809-.362 12.126c-.846 11.724-3.948 16.115-8.944 19.378 6.285-3.706 11.804-9.105 12.731-22.238l.362-12.127z" fill="#72b5e8"/><path d="m223.954 197.003c-7.654-12.691-11.482-19.056-12.408-32.995l-.202-7.292c4.915 2.216 9.629 2.941 13.859 2.095 4.23 5.72 8.944 10.474 13.859 13.899l-.202 7.05c-.926 12.851-4.794 14.785-12.408 18.653-.403.201-.806.402-1.209.604-.483-.645-.886-1.33-1.289-2.014z" fill="#921df6"/><path d="m227.056 197.889c-.403.201-.806.403-1.208.604-.403-.685-.806-1.37-1.209-2.054-7.654-12.691-11.482-19.056-12.408-32.995l-.202-6.486c-.201-.081-.443-.202-.644-.282l.201 7.291c.927 13.94 4.794 20.305 12.408 32.995.403.645.806 1.33 1.209 2.055.403-.202.806-.403 1.209-.604 3.102-1.572 5.599-2.82 7.533-4.633-1.813 1.531-4.109 2.699-6.889 4.109z" fill="#001a46"/><path d="m291.436 132.342c-.121 1.894-1.289 3.666-3.666 5.036l-45.887 26.509c-5.439 3.142-14.906 2.739-21.15-.887l-42.866-24.736c-2.981-1.732-4.713-3.867-5.076-6.002-.121-.605-.121-1.209 0-1.813.323-1.652 1.491-3.223 3.586-4.432l45.886-26.5085c5.439-3.1423 14.907-2.7395 21.151.8865l42.865 24.736c3.263 1.893 4.996 4.27 5.157 6.567.04.241.04.443 0 .644z" fill="url(#O)" opacity=".5"/><path d="m291.434 131.738c-.12-1.692-1.087-3.425-2.9-4.956 1.047 1.209 1.611 2.498 1.692 3.747v.604c-.121 1.894-1.289 3.667-3.666 5.036l-45.887 26.509c-5.439 3.142-14.906 2.739-21.15-.886l-42.866-24.736c-.886-.484-1.611-1.048-2.296-1.612.846 1.007 2.014 1.974 3.505 2.82l42.865 24.736c6.245 3.626 15.752 4.029 21.151.887l45.927-26.509c2.336-1.37 3.545-3.142 3.666-5.036 0-.201 0-.403-.041-.604z" fill="#fff" opacity=".2"/><path d="m360.969 379.179c-.12 1.853-1.329 3.626-3.666 4.996l-45.927 26.508c-5.438 3.143-14.906 2.74-21.15-.886l-42.865-24.736c-2.981-1.732-4.714-3.868-5.117-6.003-.121-.604-.121-1.208 0-1.813.323-1.651 1.491-3.182 3.586-4.391l18.653-10.756 27.274-15.753c5.438-3.142 14.906-2.739 21.15.887l25.744 14.866 17.121 9.87c3.264 1.893 5.036 4.27 5.157 6.607.081.161.081.403.04.604z" fill="#a47eff"/><path d="m360.969 313.754v65.425c-.12 1.854-1.329 3.626-3.666 4.996l-45.927 26.509c-5.438 3.142-14.906 2.739-21.15-.887l-42.865-24.736c-2.981-1.732-4.714-3.867-5.117-6.002v-65.305z" fill="url(#P)"/><path d="m357.345 320.642-4.351 2.498-41.576 24.011c-5.439 3.143-14.906 2.74-21.151-.886l-42.865-24.736c-6.244-3.626-6.929-9.105-1.531-12.207l45.927-26.509c5.439-3.142 14.906-2.739 21.151.887l15.591 8.983 27.274 15.753c6.244 3.625 6.929 9.104 1.531 12.206z" fill="url(#Q)"/><path d="m357.344 320.643-4.351 2.497-86.577-.282 62.123-30.174 27.274 15.752c6.244 3.626 6.929 9.105 1.531 12.207z" fill="url(#R)"/><path d="m291.394 345.741-43.348-25.018c-4.674-2.699-6.285-6.446-4.553-9.467-2.618 3.142-1.249 7.332 3.868 10.313l42.865 24.736c5.841 3.384 14.423 3.948 19.982 1.491-5.559 1.813-13.375 1.088-18.814-2.055z" fill="#fff" opacity=".3"/><path d="m430.988 421.44c-.121 1.854-1.33 3.626-3.666 4.996l-45.927 26.509c-5.439 3.142-14.906 2.739-21.151-.887l-42.865-24.736c-2.981-1.732-4.713-3.867-5.116-6.002-.121-.605-.121-1.209 0-1.813.322-1.652 1.49-3.183 3.585-4.392l18.653-10.756 27.274-15.752c5.439-3.143 14.906-2.74 21.151.886l25.743 14.866 17.122 9.87c3.263 1.894 5.036 4.27 5.157 6.607.08.202.08.403.04.604z" fill="#330a66"/><path d="m430.988 357.304v64.176c-.121 1.854-1.329 3.626-3.666 4.996l-45.927 26.509c-5.439 3.142-14.906 2.739-21.15-.887l-42.866-24.736c-2.981-1.732-4.713-3.867-5.076-6.002v-65.346c.323-1.651 1.491-3.223 3.586-4.431l45.927-26.469c5.439-3.142 14.906-2.739 21.15.887l42.865 24.736c3.264 1.853 4.996 4.27 5.157 6.567z" fill="url(#S)" opacity=".9"/><path d="m405.647 414.713-15.631-9.025-4.834-2.78-2.337-1.329c-1.37-.806-3.505-.886-4.673-.201l-9.065 5.237-3.263 1.893-1.893 1.088-22.279 12.892-2.659 1.531c-1.209.685-1.047 1.893.322 2.699l2.337 1.329 4.834 2.78 4.835 2.78 10.797 6.204c1.369.806 3.505.886 4.673.202l39.159-22.642c1.208-.644 1.047-1.853-.323-2.658z" fill="url(#T)" opacity=".3"/><path d="m406.735 397.872-39.159 22.642c-1.208.684-3.303.604-4.673-.202l-22.802-13.133c-1.37-.806-1.531-2.015-.322-2.7l39.158-22.641c1.209-.685 3.304-.604 4.674.202l22.802 13.133c1.37.766 1.531 1.974.322 2.699z" fill="#eb3b8c"/><path d="m347.272 405.728-4.834 2.78-2.337-1.329c-1.37-.806-1.531-2.015-.322-2.7l2.659-1.531z" fill="#f451a3"/><path d="m356.941 400.128-4.835 2.78-4.834-2.78 4.834-2.82z" fill="#f451a3"/><path d="m361.775 397.308-4.834 2.82-4.835-2.82 4.835-2.78z" fill="#db3186"/><path d="m366.61 394.529-4.835 2.779-4.834-2.779 4.834-2.78z" fill="#db3186"/><path d="m371.444 391.749-4.834 2.78-4.835-2.78 4.835-2.82z" fill="#db3186"/><path d="m376.278 388.929-4.834 2.82-4.834-2.82 4.834-2.78z" fill="#db3186"/><path d="m381.113 386.149-4.835 2.78-4.834-2.78 4.834-2.78z" fill="#db3186"/><path d="m356.941 405.688-4.835 2.82-4.834-2.78 4.834-2.82z" fill="#f451a3"/><path d="m381.113 391.749-4.835 2.78-4.834-2.78 4.834-2.82z" fill="#db3186"/><path d="m390.782 386.149-4.835 2.78-4.834-2.78 4.834-2.78z" fill="#db3186"/><path d="m356.941 411.288-4.835 2.82-4.834-2.82 4.834-2.78z" fill="#f451a3"/><path d="m394.367 398.879c-.886-.523-1.289-1.208-1.289-1.853-1.088 0-2.135.242-2.981.725-1.733 1.007-1.733 2.579 0 3.586 1.732 1.007 4.512 1.007 6.204 0 .806-.484 1.249-1.088 1.289-1.733-1.128.041-2.337-.201-3.223-.725z" fill="#ffbc00"/><path d="m394.367 395.294c-.806.483-1.249 1.088-1.289 1.732 1.168 0 2.337.202 3.223.725.886.524 1.289 1.209 1.289 1.854 1.088 0 2.135-.242 2.981-.726 1.733-1.007 1.733-2.578 0-3.585-1.692-1.007-4.471-1.007-6.204 0z" fill="#ffda00"/><path d="m397.78 399.383c.225-.484-.673-1.378-2.006-1.995-1.332-.617-2.594-.725-2.819-.241-.224.485.674 1.378 2.006 1.995 1.333.618 2.595.726 2.819.241z" fill="#fdad0c"/><path d="m382.321 399.887-23.728 13.697c-.444.242-1.209.242-1.733-.08-.524-.282-.564-.766-.121-1.007l23.729-13.698c.443-.242 1.209-.242 1.733.081.523.322.564.765.12 1.007z" fill="#bc2477"/><path d="m382.402 385.786-3.303 1.894c-.524.282-1.37.282-1.854 0-.523-.282-.523-.766 0-1.088l3.304-1.894c.524-.282 1.37-.282 1.853 0s.483.766 0 1.088z" fill="#bc2477"/><path d="m430.989 357.908c-.121 1.893-1.289 3.666-3.666 5.036l-45.887 26.508c-5.438 3.143-14.906 2.74-21.15-.886l-42.865-24.736c-2.981-1.732-4.714-3.867-5.076-6.003-.121-.604-.121-1.208 0-1.813.322-1.651 1.49-3.223 3.585-4.431l45.887-26.469c5.438-3.142 14.906-2.739 21.15.887l42.865 24.736c3.264 1.893 4.996 4.27 5.157 6.567.04.201.04.402 0 .604z" fill="url(#U)" opacity=".5"/><path d="m361.453 388.043-43.349-25.059c-4.673-2.699-6.284-6.446-4.552-9.467-2.619 3.142-1.249 7.332 3.867 10.313l42.866 24.736c5.841 3.384 14.422 3.948 19.982 1.491-5.6 1.853-13.416 1.088-18.814-2.014z" fill="#fff" opacity=".3"/><path d="m357.384 249.415c1.047 1.572 1.128 3.707.08 6.164l-20.626 48.828c-2.418 5.761-10.233 11.159-17.404 12.086l-49.11 6.123c-3.424.444-6.083-.241-7.695-1.692-.443-.402-.846-.926-1.087-1.45-.766-1.491-.725-3.465.201-5.68l8.38-19.821 12.247-29.007c2.457-5.761 10.233-11.159 17.404-12.086l29.49-3.666 19.619-2.458c3.747-.483 6.607.403 8.098 2.136.161.161.282.322.403.523z" fill="#a47eff"/><path d="m317.903 197.244 39.481 52.171c1.047 1.572 1.128 3.707.08 6.164l-20.626 48.828c-2.418 5.761-10.233 11.159-17.404 12.086l-49.11 6.124c-3.424.443-6.083-.242-7.695-1.693l-39.4-52.09z" fill="url(#V)"/><path d="m319.192 204.939-20.627 48.827c-2.417 5.761-10.233 11.16-17.404 12.086l-49.109 6.124c-7.171.886-10.999-3.062-8.581-8.823l20.586-48.827c2.417-5.761 10.233-11.16 17.404-12.086l49.11-6.124c7.211-.886 11.038 3.062 8.621 8.823z" fill="#4e1caf"/><path d="m313.35 196.036c4.15.926 5.963 4.27 4.11 8.702l-20.627 48.827c-2.417 5.761-10.233 11.16-17.404 12.086l-49.11 6.124c-1.007.121-1.933.161-2.779.08 1.289.282 2.779.363 4.472.121l49.109-6.123c7.171-.887 14.987-6.285 17.404-12.086l20.627-48.828c2.135-4.955-.443-8.581-5.802-8.903z" fill="#fff" opacity=".2"/><path d="m459.873 363.951-1.651.967v7.896l-1.169.685v-7.896l-1.651.966v-1.248l4.471-2.579z" fill="#fff"/><path d="m463.378 368.02-2.095 1.209-.362 2.054-1.209.685 2.015-10.313 1.248-.726 2.015 8.017-1.209.685zm-.241-1.088-.484-2.175c-.121-.524-.242-1.33-.282-1.813h-.04c-.04.524-.161 1.45-.282 2.135l-.484 2.739z" fill="#fff"/><path d="m465.473 365.965v-3.787c0-1.853.887-3.384 2.297-4.189 1.45-.846 2.296-.323 2.377 1.45l-1.129.644c-.08-1.047-.483-1.289-1.248-.846-.685.403-1.128 1.169-1.128 2.257v3.786c0 1.088.443 1.33 1.128.927.765-.443 1.168-1.168 1.248-2.256l1.129-.645c-.081 1.854-.927 3.344-2.377 4.19-1.41.806-2.297.323-2.297-1.531z" fill="#fff"/><path d="m475.787 353.517v9.145l-1.128.644v-4.028l-2.256 1.289v4.028l-1.128.645v-9.105l1.128-.644v3.907l2.256-1.289v-3.908z" fill="#fff"/><path d="m478.566 358.109-1.933-5.036 1.208-.685.887 2.538c.12.323.282.806.402 1.209h.041l.403-1.692.886-3.545 1.209-.685-1.934 7.252v3.021l-1.128.645v-3.022z" fill="#fff"/><path d="m482.192 356.095v-3.344c0-1.893.927-3.585 2.417-4.472 1.491-.886 2.418-.241 2.418 1.692v3.344c0 1.894-.927 3.586-2.418 4.472-1.49.886-2.417.201-2.417-1.692zm3.707-2.135v-3.344c0-1.168-.443-1.531-1.249-1.047-.846.483-1.249 1.329-1.249 2.497v3.344c0 1.168.403 1.531 1.249 1.048.806-.484 1.249-1.33 1.249-2.498z" fill="#fff"/><path d="m488.437 346.225 1.128-.645 1.813 3.626c.241.483.523 1.168.725 1.611l.04-.04c-.08-.846-.161-2.175-.161-2.981v-3.586l1.128-.644v9.145l-1.128.644-1.773-3.464c-.241-.524-.564-1.289-.765-1.773l-.04.04c.08.887.12 2.216.12 3.062v3.545l-1.128.645v-9.185z" fill="#fff"/><path d="m465.594 376.722v9.145l-1.128.645v-3.586c.04-1.047.04-2.014.081-3.021h-.041c-.241.846-.483 1.853-.765 2.86l-.685 2.498-1.128.644-.685-1.692c-.282-.685-.564-1.369-.765-1.974l-.041.041c.041.926.081 1.853.081 2.9v3.586l-1.128.644v-9.105l1.168-.684 1.33 2.941c.201.402.443 1.128.564 1.49l.04-.04c.121-.484.403-1.531.564-2.135l1.33-4.472z" fill="#fff"/><path d="m466.924 382.201v-3.344c0-1.893.926-3.585 2.417-4.472 1.531-.886 2.417-.241 2.417 1.692v3.344c0 1.894-.927 3.586-2.417 4.472-1.491.846-2.417.201-2.417-1.692zm3.666-2.135v-3.344c0-1.168-.443-1.531-1.249-1.048-.846.484-1.249 1.33-1.249 2.498v3.344c0 1.168.403 1.531 1.249 1.048.846-.444 1.249-1.33 1.249-2.498z" fill="#fff"/><path d="m477.72 376.279c0 1.651-.926 3.142-2.296 3.948l-2.256 1.289v-9.145l2.135-1.249c1.289-.725 2.095-.282 2.095 1.289 0 .886-.322 1.813-.806 2.417.685-.08 1.128.444 1.128 1.451zm-3.424-3.344v2.619l.927-.524c.685-.403 1.047-1.048 1.047-1.934 0-.846-.322-1.088-1.088-.645zm2.256 3.988c0-.926-.524-1.128-1.329-.685l-.927.524v2.82l.967-.564c.846-.443 1.289-1.128 1.289-2.095z" fill="#fff"/><path d="m478.768 369.107 1.128-.644v9.145l-1.128.645z" fill="#fff"/><path d="m485.294 373.257v1.249l-3.787 2.176v-9.146l1.128-.644v7.896z" fill="#fff"/><path d="m490.129 370.477v1.249l-3.989 2.297v-9.146l3.868-2.256v1.249l-2.74 1.571v2.659l2.539-1.45v1.209l-2.539 1.45v2.82z" fill="#fff"/><path d="m184.795 229.675-1.571-.886v7.493l-1.088-.644v-7.494l-1.571-.886v-1.209l4.23 2.458z" fill="#fff"/><path d="m188.099 237.33-1.974-1.128-.363 1.53-1.128-.644 1.894-7.574 1.168.685 1.894 9.749-1.129-.644zm-.242-1.29-.483-2.618c-.121-.645-.242-1.531-.282-2.015h-.041c-.04.444-.161 1.209-.282 1.692l-.443 2.055z" fill="#fff"/><path d="m190.033 237.652v-3.586c0-1.772.846-2.216 2.175-1.45 1.37.806 2.176 2.175 2.216 3.948l-1.088-.604c-.08-1.048-.443-1.733-1.168-2.135-.645-.363-1.048-.121-1.048.926v3.586c0 1.047.403 1.772 1.088 2.135.725.403 1.128.161 1.209-.766l1.088.605c-.081 1.651-.887 2.135-2.257 1.329-1.329-.806-2.215-2.256-2.215-3.988z" fill="#fff"/><path d="m199.822 237.169v8.661l-1.087-.644v-3.787l-2.136-1.209v3.787l-1.087-.644v-8.662l1.087.644v3.707l2.136 1.208v-3.706z" fill="#fff"/><path d="m202.441 244.501-1.813-6.889 1.128.644.846 3.384c.121.443.282 1.088.363 1.571h.04l.403-1.168.846-2.377 1.128.645-1.813 4.754v2.86l-1.088-.645v-2.779z" fill="#fff"/><path d="m205.906 246.596v-3.183c0-1.813.846-2.417 2.296-1.571s2.296 2.417 2.296 4.23v3.183c0 1.813-.846 2.417-2.296 1.571-1.45-.806-2.296-2.417-2.296-4.23zm3.464 2.014v-3.183c0-1.087-.403-1.933-1.168-2.376-.765-.444-1.168-.081-1.168 1.007v3.182c0 1.088.403 1.934 1.168 2.377s1.168.081 1.168-1.007z" fill="#fff"/><path d="m211.788 244.058 1.087.644 1.733 5.439c.241.725.523 1.692.684 2.296h.041c-.081-.886-.161-2.256-.161-3.021v-3.384l1.087.604v8.662l-1.087-.645-1.692-5.197c-.242-.765-.524-1.853-.726-2.538h-.04c.081.927.121 2.256.121 3.062v3.344l-1.088-.605v-8.661z" fill="#fff"/><path d="m191.846 250.1v2.579l2.256 1.289v1.128l-2.256-1.289v3.747l-1.088-.645v-8.662l3.545 2.055v1.168z" fill="#fff"/><path d="m197.083 257.473-.685-.403v3.143l-1.088-.645v-8.662l1.934 1.128c1.45.846 2.256 2.297 2.256 4.029 0 1.37-.483 2.014-1.37 1.853l1.612 4.271-1.209-.685zm-.685-1.571.846.483c.765.443 1.168.081 1.168-.926 0-1.008-.403-1.773-1.128-2.216l-.846-.484v3.143z" fill="#fff"/><path d="m206.591 257.473v8.662l-1.048-.605v-3.384c.04-.967.04-1.853.081-2.739l-.041-.041c-.201.564-.483 1.209-.725 1.854l-.644 1.611-1.088-.604-.645-2.337c-.241-.926-.523-1.893-.725-2.699h-.04c.04.927.08 1.853.08 2.86v3.384l-1.047-.604v-8.662l1.088.645 1.249 4.23c.161.604.443 1.571.564 2.055l.04.04c.121-.322.362-1.007.564-1.41l1.249-2.78z" fill="#fff"/><path d="m249.778 289.058-2.014.282 5.116 6.567-1.41.201-5.116-6.567-1.974.282-.806-1.047 5.398-.766z" fill="#fff"/><path d="m257.956 293.489-2.538.363.766 1.611-1.451.202-3.545-7.937 1.491-.201 8.339 7.292-1.45.201zm-1.088-1.007-2.215-1.974c-.524-.483-1.249-1.209-1.612-1.571h-.04c.242.403.685 1.168.926 1.692l1.008 2.135z" fill="#fff"/><path d="m259.89 292.442-2.458-3.142c-1.208-1.531-.765-2.539.887-2.78 1.732-.242 3.424.443 4.673 1.933l-1.37.202c-.765-.886-1.571-1.209-2.497-1.088-.806.121-1.008.604-.283 1.531l2.458 3.142c.725.887 1.571 1.249 2.417 1.128.927-.12 1.088-.604.524-1.49l1.37-.202c1.087 1.531.685 2.498-1.048 2.74-1.732.242-3.505-.443-4.673-1.974z" fill="#fff"/><path d="m268.149 285.311 5.962 7.614-1.37.202-2.618-3.344-2.699.362 2.618 3.344-1.37.202-6.002-7.615 1.369-.201 2.539 3.223 2.699-.363-2.538-3.223z" fill="#fff"/><path d="m275.481 289.944-6.325-4.794 1.45-.201 3.062 2.376c.403.323.967.766 1.41 1.128h.04l-.443-1.289-.886-2.659 1.45-.201 1.652 5.439 1.974 2.497-1.37.202z" fill="#fff"/><path d="m279.953 289.42-2.176-2.779c-1.249-1.571-.886-2.7.927-2.982 1.813-.241 3.666.565 4.915 2.136l2.175 2.779c1.249 1.572.887 2.7-.926 2.982-1.813.241-3.666-.564-4.915-2.136zm4.431-.644-2.175-2.78c-.766-.967-1.692-1.41-2.659-1.249-1.007.121-1.088.725-.363 1.692l2.176 2.78c.765.967 1.652 1.41 2.659 1.249 1.007-.121 1.087-.725.362-1.692z" fill="#fff"/><path d="m283.377 283.136 1.37-.202 5.237 3.586c.685.483 1.612 1.128 2.176 1.571l.04-.04c-.685-.725-1.652-1.853-2.216-2.538l-2.336-2.981 1.369-.202 5.963 7.614-1.37.202-5.036-3.425c-.725-.523-1.732-1.249-2.377-1.732l-.04.04c.685.766 1.652 1.894 2.216 2.619l2.296 2.941-1.37.201z" fill="#fff"/><path d="m264.805 307.711-2.458-3.143c-1.208-1.531-.765-2.538.887-2.779 1.732-.242 3.424.443 4.673 1.933l-1.37.202c-.765-.887-1.571-1.209-2.498-1.088-.805.121-1.007.604-.282 1.531l2.458 3.142c.725.887 1.571 1.249 2.417 1.128.927-.121 1.088-.604.524-1.49l1.37-.202c1.087 1.531.685 2.498-1.048 2.74-1.732.241-3.505-.443-4.673-1.974z" fill="#fff"/><path d="m273.628 305.857-.846.121 2.175 2.78-1.37.201-6.002-7.614 2.457-.363c1.813-.241 3.545.484 4.714 1.975.926 1.168.926 2.094.08 2.578l4.351 2.619-1.531.201zm-1.692-.926 1.047-.162c.967-.12 1.088-.725.363-1.611s-1.571-1.289-2.538-1.168l-1.088.161z" fill="#fff"/><path d="m284.465 306.26.806 1.048-4.835.684-5.962-7.614 4.673-.644.806 1.047-3.304.484 1.733 2.215 3.061-.443.806 1.007-3.062.443 1.813 2.337z" fill="#fff"/><path d="m280.799 299.492 2.377-.322c1.853-.242 3.625.443 4.794 1.974l2.216 2.86c1.168 1.531.765 2.538-1.088 2.82l-2.377.323zm7.533 6.204c.967-.121 1.169-.685.484-1.571l-2.176-2.82c-.685-.886-1.611-1.289-2.618-1.128l-1.007.161 4.31 5.519z" fill="#fff"/><path d="m287.768 298.485 1.37-.201 5.963 7.614-1.37.201z" fill="#fff"/><path d="m296.511 298.404-2.015.282 5.117 6.567-1.41.202-5.117-6.567-1.974.282-.806-1.048 5.399-.765z" fill="#fff"/><path d="m390.862 251.954-1.732 1.007v8.339l-1.249.725v-8.339l-1.732 1.007v-1.329l4.713-2.74z" fill="#fff"/><path d="m394.569 256.224-2.216 1.289-.363 2.176-1.249.725 2.095-10.878 1.289-.765 2.095 8.46-1.249.725zm-.242-1.168-.524-2.297c-.121-.564-.242-1.41-.322-1.893l-.04.04c-.041.564-.162 1.531-.323 2.256l-.523 2.901z" fill="#fff"/><path d="m396.744 254.089v-3.989c0-1.974.927-3.585 2.417-4.431 1.531-.886 2.418-.363 2.498 1.531l-1.209.685c-.08-1.088-.483-1.37-1.289-.887-.725.403-1.168 1.209-1.168 2.377v3.989c0 1.128.483 1.41 1.209 1.007.805-.484 1.249-1.249 1.329-2.377l1.209-.685c-.081 1.934-.967 3.505-2.538 4.391-1.491.846-2.458.323-2.458-1.611z" fill="#fff"/><path d="m407.662 240.956v9.668l-1.209.685v-4.23l-2.377 1.37v4.23l-1.208.685v-9.669l1.208-.685v4.109l2.377-1.369v-4.11z" fill="#fff"/><path d="m410.562 245.75-2.014-5.318 1.249-.725.927 2.658c.12.363.282.846.402 1.29h.041l.443-1.813.926-3.747 1.249-.725-2.014 7.654v3.183l-1.209.685z" fill="#fff"/><path d="m414.43 243.654v-3.545c0-2.014.967-3.787 2.578-4.713 1.612-.927 2.579-.242 2.579 1.772v3.545c0 2.015-.967 3.787-2.579 4.714-1.611.927-2.578.242-2.578-1.773zm3.868-2.256v-3.545c0-1.209-.444-1.611-1.33-1.128s-1.329 1.41-1.329 2.619v3.545c0 1.209.443 1.611 1.329 1.128s1.33-1.41 1.33-2.619z" fill="#fff"/><path d="m420.997 233.261 1.208-.685 1.934 3.827c.242.483.564 1.208.766 1.692l.04-.04c-.081-.887-.161-2.297-.161-3.143v-3.787l1.208-.685v9.669l-1.208.685-1.854-3.666c-.241-.564-.604-1.37-.805-1.893l-.041.04c.081.926.162 2.336.162 3.263v3.747l-1.209.685v-9.709z" fill="#fff"/><path d="m395.092 273.265v-3.988c0-1.974.927-3.586 2.418-4.432 1.53-.886 2.417-.362 2.497 1.531l-1.208.685c-.081-1.088-.484-1.37-1.289-.886-.726.403-1.169 1.208-1.169 2.377v3.988c0 1.128.484 1.41 1.209 1.007.806-.483 1.249-1.249 1.329-2.377l1.209-.684c-.081 1.933-.967 3.504-2.538 4.391-1.491.846-2.458.362-2.458-1.612z" fill="#fff"/><path d="m400.974 269.68v-3.545c0-2.015.967-3.787 2.579-4.714 1.611-.927 2.578-.242 2.578 1.773v3.545c0 2.014-.967 3.787-2.578 4.713-1.612.887-2.579.242-2.579-1.772zm3.868-2.256v-3.546c0-1.208-.443-1.611-1.33-1.128-.886.524-1.329 1.41-1.329 2.619v3.545c0 1.209.443 1.612 1.329 1.128.887-.483 1.33-1.41 1.33-2.618z" fill="#fff"/><path d="m409.515 264.322-.765.443v3.505l-1.209.685v-9.669l2.175-1.249c1.612-.927 2.498-.363 2.498 1.571 0 1.491-.564 2.861-1.49 3.827l1.812 2.659-1.329.766zm-.765-.927.926-.524c.846-.483 1.289-1.369 1.289-2.538 0-1.128-.443-1.49-1.289-1.007l-.926.564z" fill="#fff"/><path d="m417.774 261.703v1.33l-4.23 2.417v-9.669l4.109-2.377v1.33l-2.901 1.651v2.82l2.659-1.531v1.29l-2.659 1.531v2.94z" fill="#fff"/><path d="m592.82 183.708c-.846 1.651-2.659 2.82-5.318 3.142l-52.655 6.204c-6.204.725-14.785-3.384-19.096-9.185l-29.611-39.683c-2.054-2.779-2.779-5.438-2.296-7.533.121-.605.363-1.169.725-1.692.927-1.41 2.619-2.337 5.036-2.619l21.392-2.538 31.263-3.706c6.204-.726 14.785 3.384 19.096 9.185l17.766 23.809 11.845 15.833c2.256 3.022 2.9 5.922 2.135 8.098-.121.282-.202.483-.282.685z" fill="#a47eff"/><path d="m618.644 123.6-25.824 60.108c-.846 1.651-2.659 2.82-5.318 3.142l-52.655 6.204c-6.204.725-14.785-3.384-19.096-9.185l-29.611-39.683c-2.054-2.779-2.779-5.438-2.296-7.533l25.784-59.9872z" fill="url(#W)"/><path d="m612.56 128.515-52.654 6.204c-6.205.725-14.786-3.384-19.096-9.185l-29.611-39.6828c-4.311-5.8013-2.78-11.0789 3.424-11.8041l52.655-6.2041c6.204-.7252 14.785 3.3841 19.096 9.1854l29.611 39.6826c4.351 5.761 2.82 11.038-3.425 11.804z" fill="url(#X)"/><path d="m542.099 125.493-29.933-40.1254c-3.223-4.3509-3.223-8.3796-.444-10.5148-3.666 1.8532-4.028 6.2444-.523 10.9983l29.611 39.6829c4.028 5.398 11.723 9.306 17.766 9.265-5.842-.523-12.731-4.27-16.477-9.306z" fill="#fff" opacity=".3"/><path d="m593.263 182.58c-.846 1.692-2.619 2.86-5.278 3.182l-52.574 6.849c-6.204.806-14.785-3.183-19.217-8.944l-30.054-39.319c-2.094-2.74-2.86-5.399-2.417-7.494.121-.604.363-1.168.685-1.692.927-1.41 2.619-2.377 4.996-2.699l21.352-2.78 31.222-4.069c6.204-.806 14.785 3.183 19.217 8.944l18.048 23.608 12.006 15.712c2.296 3.021 2.981 5.882 2.256 8.057-.041.282-.121.484-.242.645z" fill="#a47eff"/><path d="m618.402 122.19-25.139 60.39c-.846 1.692-2.619 2.86-5.278 3.182l-52.574 6.849c-6.204.806-14.785-3.183-19.217-8.944l-30.054-39.319c-2.094-2.74-2.86-5.399-2.417-7.494l25.099-60.2688z" fill="url(#Y)"/><path d="m612.399 127.185-52.574 6.809c-6.204.806-14.826-3.183-19.217-8.944l-30.054-39.3197c-4.391-5.761-2.9-11.0386 3.304-11.8443l52.574-6.8084c6.204-.8058 14.826 3.1826 19.217 8.9436l30.054 39.3198c4.391 5.721 2.9 11.039-3.304 11.844z" fill="#26c6da"/><path d="m541.897 125.01-30.376-39.7632c-3.303-4.3107-3.303-8.3797-.564-10.5149-3.626 1.8935-3.988 6.2848-.362 10.9983l30.053 39.3198c4.069 5.358 11.804 9.185 17.888 9.024-5.882-.403-12.811-4.109-16.639-9.064z" fill="#fff" opacity=".5"/><path d="m594.512 182.942c-.846 1.692-2.699 2.901-5.399 3.223l-53.5 6.688c-6.325.805-15.027-3.304-19.499-9.186l-30.417-40.125c-2.135-2.82-2.9-5.479-2.417-7.614.121-.605.363-1.209.725-1.692.967-1.411 2.659-2.418 5.076-2.7l21.715-2.739 31.786-3.989c6.325-.805 15.027 3.304 19.499 9.186l18.25 24.091 12.126 16.034c2.337 3.062 3.022 6.003 2.256 8.219-.04.242-.121.443-.201.604z" fill="#a47eff"/><path d="m620.336 121.626-25.864 61.316c-.846 1.692-2.7 2.901-5.399 3.223l-53.501 6.688c-6.325.805-15.027-3.304-19.498-9.186l-30.417-40.125c-2.135-2.82-2.901-5.479-2.417-7.614l25.783-61.1961z" fill="url(#Z)"/><path d="m614.212 126.662-53.501 6.687c-6.325.806-15.027-3.303-19.499-9.185l-30.416-40.1257c-4.432-5.8819-2.901-11.24 3.384-12.0457l53.501-6.6876c6.325-.8058 15.027 3.3035 19.499 9.1853l30.416 40.1257c4.432 5.842 2.941 11.24-3.384 12.046z" fill="url(#aa)"/><path d="m542.502 124.124-30.739-40.5691c-3.344-4.3913-3.344-8.5005-.524-10.676-3.706 1.8935-4.069 6.4056-.443 11.1997l30.416 40.1254c4.15 5.439 11.966 9.387 18.129 9.266-5.962-.483-12.972-4.27-16.839-9.346z" fill="#fff" opacity=".3"/><path d="m560.792 152.244-2.015.241-3.303 7.655-1.41.161 3.303-7.654-1.974.241.524-1.208 5.398-.645z" fill="#fff"/><path d="m562.484 157.602-2.538.282-1.209 1.853-1.45.161 6.244-9.145 1.491-.161-1.41 8.581-1.451.161zm.242-1.128.402-2.296c.121-.564.323-1.41.444-1.854h-.041c-.282.484-.765 1.33-1.168 1.934l-1.612 2.458z" fill="#fff"/><path d="m565.344 156.514 1.571-3.666c.766-1.813 2.297-2.901 3.948-3.102 1.733-.201 2.337.645 1.692 2.377l-1.369.161c.362-1.047.08-1.45-.846-1.329-.806.08-1.572.644-2.015 1.732l-1.571 3.666c-.443 1.047-.121 1.491.725 1.37.927-.121 1.652-.645 2.176-1.692l1.37-.161c-.846 1.772-2.297 2.86-4.069 3.061-1.692.202-2.377-.644-1.612-2.417z" fill="#fff"/><path d="m580.532 148.779-3.827 8.863-1.37.161 1.692-3.908-2.699.323-1.692 3.908-1.37.161 3.827-8.863 1.37-.162-1.611 3.787 2.699-.322 1.611-3.787z" fill="#fff"/><path d="m581.298 154.339.241-5.681 1.451-.161-.202 2.82c-.04.363-.08.927-.121 1.33h.041l1.087-1.491 2.337-3.062 1.45-.161-4.874 6.245-1.249 2.9-1.37.161z" fill="#fff"/><path d="m585.689 153.895 1.41-3.263c.806-1.853 2.377-3.102 4.23-3.344 1.853-.201 2.457.766 1.652 2.619l-1.41 3.263c-.806 1.853-2.377 3.102-4.23 3.344-1.813.242-2.458-.765-1.652-2.619zm4.472-.523 1.41-3.263c.483-1.129.201-1.652-.766-1.531-1.007.12-1.772.805-2.256 1.893l-1.41 3.263c-.483 1.128-.242 1.652.766 1.531.966-.08 1.772-.765 2.256-1.893z" fill="#fff"/><path d="m595.801 146.966 1.37-.161.241 4.27c.041.564.041 1.33.041 1.854l.04-.041c.282-.846.765-2.175 1.088-2.981l1.49-3.465 1.37-.161-3.827 8.863-1.37.161-.282-4.109c0-.644 0-1.49 0-2.054l-.04.04c-.282.886-.806 2.216-1.169 3.021l-1.49 3.425-1.37.161z" fill="#fff"/><path d="m558.173 167.311 2.377-.282c1.853-.201 2.538.685 1.773 2.417l-1.41 3.304c-.766 1.772-2.297 2.901-4.15 3.142l-2.417.282zm-.886 7.373c.967-.121 1.772-.726 2.256-1.773l1.41-3.263c.443-1.048.121-1.491-.886-1.37l-1.008.121-2.779 6.446z" fill="#fff"/><path d="m566.714 173.596-.524 1.208-4.834.564 3.827-8.863 4.714-.564-.524 1.209-3.304.403-1.087 2.578 3.061-.363-.523 1.169-3.062.362-1.168 2.7z" fill="#fff"/><path d="m574.288 171.42c-.685 1.571-2.176 2.659-3.868 2.86l-2.739.323 3.827-8.863 2.619-.323c1.53-.201 2.135.645 1.53 2.095-.362.846-1.047 1.612-1.772 2.015.604.241.806.926.403 1.893zm-1.41.161c.403-.926-.041-1.329-1.008-1.208l-1.128.121-1.168 2.699 1.168-.121c1.048-.081 1.733-.564 2.136-1.491zm-.524-4.794-1.088 2.538 1.088-.121c.846-.08 1.45-.604 1.813-1.45.362-.846.121-1.209-.766-1.088z" fill="#fff"/><path d="m578.316 164.934 1.37-.161-3.827 8.863-1.37.161z" fill="#fff"/><path d="m585.769 165.216-2.014.242-3.303 7.654-1.41.162 3.303-7.655-1.974.242.524-1.209 5.398-.644z" fill="#fff"/><path d="m229.554 478.607c-.121 1.853-1.329 3.626-3.666 4.995l-45.927 26.509c-5.439 3.142-14.906 2.74-21.151-.886l-42.865-24.736c-2.981-1.733-4.713-3.868-5.116-6.003-.121-.604-.121-1.209 0-1.813.322-1.652 1.491-3.183 3.585-4.391l18.653-10.757 27.274-15.752c5.439-3.142 14.906-2.739 21.151.886l25.743 14.866 17.162 9.83c3.264 1.894 5.036 4.271 5.157 6.607.04.202.04.443 0 .645z" fill="#a47eff"/><path d="m229.554 413.181v65.426c-.121 1.853-1.329 3.626-3.666 4.995l-45.927 26.509c-5.439 3.142-14.906 2.74-21.151-.886l-42.865-24.736c-2.981-1.733-4.713-3.868-5.116-6.003v-65.305z" fill="url(#ab)"/><path d="m225.929 420.07-45.927 26.509c-5.438 3.142-14.906 2.739-21.15-.887l-42.865-24.736c-6.245-3.626-6.93-9.105-1.531-12.207l45.927-26.508c5.438-3.143 14.906-2.74 21.15.886l42.865 24.736c6.285 3.626 6.93 9.105 1.531 12.207z" fill="url(#ac)"/><path d="m160.019 445.169-43.349-25.018c-4.673-2.699-6.284-6.446-4.552-9.468-2.619 3.143-1.249 7.333 3.868 10.314l42.865 24.736c5.841 3.384 14.422 3.948 19.982 1.49-5.56 1.813-13.375 1.088-18.814-2.054z" fill="#fff" opacity=".3"/><path d="m630.85 459.108c-.12 1.853-1.329 3.626-3.666 4.996l-45.927 26.508c-5.438 3.143-14.906 2.74-21.15-.886l-42.865-24.736c-2.981-1.732-4.714-3.868-5.117-6.003-.121-.604-.121-1.208 0-1.813.323-1.651 1.491-3.182 3.586-4.391l18.653-10.757 27.274-15.752c5.439-3.142 14.906-2.739 21.15.887l25.744 14.865 17.121 9.871c3.264 1.893 5.036 4.27 5.157 6.607.081.161.081.403.04.604z" fill="#a47eff"/><path d="m630.77 459.309c-.121 1.853-1.33 3.626-3.666 4.996l-45.927 26.509c-5.439 3.142-14.906 2.739-21.151-.887l-42.865-24.736c-2.981-1.732-4.713-3.867-5.116-6.003-.121-.604-.121-1.208 0-1.812.322-1.652 1.49-3.183 3.585-4.392l18.653-10.756 27.274-15.752c5.439-3.143 14.906-2.74 21.151.886l25.743 14.866 17.122 9.87c3.263 1.893 5.036 4.27 5.157 6.607.04.161.04.363.04.604z" fill="#a47eff"/><path d="m630.77 395.133v64.177c-.121 1.853-1.329 3.626-3.666 4.996l-45.927 26.508c-5.438 3.143-14.906 2.74-21.15-.886l-42.865-24.736c-2.982-1.732-4.714-3.868-5.077-6.003v-65.305c.323-1.651 1.491-3.223 3.586-4.431l45.887-26.509c5.438-3.142 14.906-2.739 21.15.886l42.865 24.736c3.304 1.894 5.036 4.271 5.197 6.567z" fill="url(#ad)" opacity=".6"/><path d="m630.772 395.737c-.121 1.894-1.289 3.666-3.666 5.036l-45.887 26.509c-5.439 3.142-14.906 2.739-21.151-.886l-42.905-24.737c-2.981-1.732-4.713-3.867-5.076-6.002-.121-.605-.121-1.209 0-1.813.322-1.652 1.491-3.223 3.585-4.432l45.887-26.508c5.439-3.143 14.906-2.74 21.151.886l42.865 24.736c3.263 1.893 4.995 4.27 5.156 6.567.041.241.041.443.041.644z" fill="url(#ae)" opacity=".5"/><path d="m630.77 395.133c-.121-1.692-1.088-3.425-2.901-4.956 1.048 1.209 1.612 2.498 1.692 3.747v.604c-.121 1.894-1.289 3.667-3.666 5.036l-45.886 26.509c-5.439 3.142-14.907 2.74-21.151-.886l-42.905-24.736c-.887-.484-1.612-1.048-2.297-1.612.846 1.007 2.015 1.974 3.505 2.82l42.865 24.736c6.245 3.626 15.752 4.029 21.151.887l45.886-26.509c2.337-1.37 3.546-3.142 3.667-5.036.04-.201.04-.403.04-.604z" fill="#fff" opacity=".2"/><path d="m256.385 342.357-1.45-.846v6.889l-1.008-.604v-6.889l-1.45-.806v-1.088l3.868 2.256v1.088z" fill="#fff"/><path d="m259.447 349.407-1.813-1.047-.322 1.41-1.048-.605 1.732-6.969 1.088.604 1.733 8.984-1.048-.604zm-.202-1.208-.443-2.377c-.08-.564-.201-1.41-.242-1.854h-.04c-.04.403-.161 1.088-.242 1.572l-.443 1.893z" fill="#fff"/><path d="m261.26 349.689v-3.263c0-1.611.765-2.055 1.974-1.329 1.249.725 1.974 2.014 2.054 3.625l-.967-.564c-.04-.966-.402-1.611-1.087-1.974-.564-.322-.967-.12-.967.846v3.264c0 .926.403 1.611.967 1.974.685.403 1.007.161 1.087-.726l.967.565c-.08 1.53-.805 1.974-2.095 1.248-1.168-.725-1.933-2.054-1.933-3.666z" fill="#fff"/><path d="m270.244 349.286v7.977l-1.008-.564v-3.505l-1.933-1.128v3.505l-1.007-.564v-7.977l1.007.564v3.384l1.933 1.128v-3.384z" fill="#fff"/><path d="m272.621 356.014-1.693-6.325 1.048.605.765 3.102c.081.402.242 1.007.363 1.45l.363-1.088.765-2.175 1.047.604-1.692 4.391v2.619l-1.007-.564v-2.619z" fill="#fff"/><path d="m275.803 357.948v-2.9c0-1.652.806-2.216 2.095-1.451 1.33.766 2.095 2.216 2.095 3.908v2.901c0 1.651-.806 2.216-2.095 1.45-1.289-.765-2.095-2.256-2.095-3.908zm3.223 1.853v-2.9c0-1.007-.362-1.773-1.088-2.176-.725-.403-1.087-.08-1.087.927v2.901c0 1.007.362 1.772 1.087 2.175.726.403 1.088.04 1.088-.927z" fill="#fff"/><path d="m281.242 355.611 1.007.564 1.571 4.996c.202.644.484 1.531.645 2.135h.04c-.08-.846-.121-2.055-.121-2.78v-3.102l.967.564v7.977l-1.007-.564-1.531-4.794c-.201-.725-.483-1.692-.644-2.337h-.041c.081.846.121 2.055.121 2.82v3.062l-.967-.564v-7.977z" fill="#fff"/><path d="m258.923 363.427v-3.263c0-1.612.765-2.055 1.974-1.33 1.249.725 1.974 2.014 2.055 3.626l-.967-.564c-.04-.967-.403-1.612-1.088-1.974-.564-.322-.967-.121-.967.846v3.263c0 .927.403 1.612.967 1.974.685.403 1.007.161 1.088-.725l.967.564c-.081 1.531-.806 1.974-2.095 1.249-1.128-.725-1.934-2.055-1.934-3.666z" fill="#fff"/><path d="m266.336 368.463-1.813-1.048-.322 1.41-1.048-.604 1.733-6.97 1.087.605 1.733 8.984-1.048-.605zm-.202-1.209-.443-2.377c-.08-.564-.201-1.41-.241-1.853h-.041c-.04.403-.161 1.088-.241 1.571l-.444 1.894z" fill="#fff"/><path d="m270.083 369.309-.605-.363v2.901l-1.007-.564v-7.977l1.773 1.048c1.329.765 2.054 2.095 2.054 3.706 0 1.249-.443 1.853-1.249 1.692l1.491 3.908-1.088-.645zm-.605-1.45.766.443c.685.403 1.047.08 1.047-.846 0-.927-.362-1.652-1.047-2.015l-.766-.443z" fill="#fff"/><path d="m273.467 366.167 1.732 1.007c1.329.765 2.135 2.135 2.135 3.706v2.981c0 1.571-.806 2.055-2.135 1.289l-1.732-1.007zm1.732 7.896c.725.403 1.128.161 1.128-.806v-2.941c0-.927-.403-1.652-1.128-2.055l-.725-.402v5.801z" fill="#fff"/><path d="m250.503 373.62v-3.264c0-1.611.766-2.054 1.974-1.329 1.249.725 1.974 2.014 2.055 3.626l-.967-.564c-.04-.967-.403-1.612-1.088-1.974-.564-.323-.967-.121-.967.846v3.263c0 .927.403 1.611.967 1.974.685.403 1.007.161 1.088-.725l.967.564c-.081 1.531-.806 1.974-2.095 1.249-1.128-.725-1.934-2.055-1.934-3.666z" fill="#fff"/><path d="m255.378 376.238v-2.901c0-1.651.806-2.215 2.095-1.45 1.329.766 2.095 2.216 2.095 3.908v2.901c0 1.651-.806 2.215-2.095 1.45-1.33-.766-2.095-2.256-2.095-3.908zm3.182 1.853v-2.9c0-1.008-.362-1.773-1.087-2.176s-1.088-.08-1.088.927v2.9c0 1.008.363 1.773 1.088 2.176s1.087.08 1.087-.927z" fill="#fff"/><path d="m260.776 373.901 1.007.564 1.572 4.996c.201.645.483 1.531.644 2.135h.041c-.081-.846-.121-2.054-.121-2.78v-3.102l.967.564v7.977l-1.008-.564-1.531-4.794c-.201-.725-.483-1.692-.644-2.337h-.04c.08.846.12 2.055.12 2.82v3.062l-.966-.564v-7.977z" fill="#fff"/><path d="m269.599 380.106-1.45-.846v6.889l-1.007-.605v-6.848l-1.451-.806v-1.088l3.868 2.256v1.048z" fill="#fff"/><path d="m272.016 385.504-.604-.362v2.9l-1.007-.564v-7.977l1.772 1.048c1.33.765 2.055 2.095 2.055 3.706 0 1.249-.443 1.853-1.249 1.692l1.491 3.908-1.088-.644zm-.604-1.45.765.443c.685.403 1.048.081 1.048-.846s-.363-1.652-1.048-2.014l-.765-.443z" fill="#fff"/><path d="m275.159 387.68v-2.901c0-1.652.805-2.216 2.095-1.45 1.289.765 2.094 2.216 2.094 3.908v2.9c0 1.652-.805 2.216-2.094 1.451-1.29-.766-2.095-2.257-2.095-3.908zm3.223 1.853v-2.901c0-1.007-.363-1.772-1.088-2.175s-1.088-.081-1.088.926v2.901c0 1.007.363 1.773 1.088 2.175.685.403 1.088.081 1.088-.926z" fill="#fff"/><path d="m283.861 394.126v1.087l-3.304-1.893v-7.977l1.007.564v6.889z" fill="#fff"/><path d="m284.022 393.118 1.007.605c0 .805.403 1.45 1.007 1.812.645.363.967.121.967-.523 0-1.571-2.901-3.344-2.901-5.721 0-1.168.725-1.611 1.894-.927 1.168.685 1.893 1.974 1.934 3.344l-1.008-.604c0-.766-.362-1.33-.886-1.652-.564-.322-.886-.161-.886.403 0 1.571 2.9 3.223 2.9 5.721 0 1.168-.725 1.772-2.014 1.047-1.209-.725-2.014-2.054-2.014-3.505z" fill="#fff"/></g></svg>