<svg width="56" height="56" viewBox="0 0 56 56" fill="none" xmlns="http://www.w3.org/2000/svg">
<path d="M14.1851 28.4464L20.5486 34.7787C20.7771 35.0443 21.1789 35.0752 21.4458 34.8477C21.7127 34.6202 21.7438 34.2205 21.5152 33.9549C21.4939 33.9301 21.4707 33.907 21.4458 33.8858L16.1705 28.6301L41.3637 28.63C41.7151 28.63 42 28.3465 42 27.9968C42 27.647 41.7151 27.3636 41.3637 27.3636L16.1705 27.3636L21.4458 22.1142C21.7127 21.8867 21.7438 21.487 21.5152 21.2214C21.2865 20.9557 20.8849 20.9248 20.6179 21.1523C20.5931 21.1735 20.5698 21.1966 20.5486 21.2214L14.185 27.5536C13.9383 27.8005 13.9383 28.1994 14.1851 28.4464Z" fill="black"/>
<circle cx="28" cy="28" r="27.5" transform="rotate(180 28 28)" stroke="black"/>
</svg>
