<svg width="919" height="97" viewBox="0 0 919 97" fill="none" xmlns="http://www.w3.org/2000/svg">
<path d="M314.928 20.0913L320.73 27.79C321.213 28.43 321.968 28.8063 322.769 28.8063H330.94C331.831 28.8063 332.657 28.3419 333.12 27.5809L337.767 19.9466C338.975 17.962 337.119 15.5267 334.885 16.165L333.904 16.4455C332.968 16.7129 331.961 16.4246 331.308 15.702L328.446 12.5332C327.42 11.3974 325.632 11.4135 324.627 12.5677L321.89 15.7096C321.263 16.4299 320.286 16.7397 319.358 16.5125L317.574 16.0756C315.243 15.5047 313.484 18.1745 314.928 20.0913Z" fill="#2C2650"/>
<path d="M317.65 31.7105L304.486 50.8773C301.518 55.1996 300.882 60.7116 302.79 65.5958C305.161 71.6682 311.014 75.6653 317.533 75.6653H337.378C344.224 75.6653 350.211 71.0533 351.958 64.4339C353.072 60.2119 352.301 55.7142 349.845 52.1041L335.988 31.7381C334.562 29.6424 332.191 28.3881 329.656 28.3881H323.963C321.44 28.3881 319.079 29.6308 317.65 31.7105Z" fill="white" stroke="#2C2650" stroke-width="2" stroke-miterlimit="10" stroke-linecap="round"/>
<path d="M315.007 60.1969C309.04 57.8889 300.316 62.2899 296.7 64.7788V85.4822L324.33 84.9731L332.636 84.1246L337.722 81.7488L353.962 65.7729C355.782 63.9826 355.871 61.0772 354.165 59.1787C352.458 57.28 349.559 57.0606 347.586 58.6807L327.551 75.1304C329.221 71.1975 327.847 66.6228 324.107 64.5575C321.294 63.0048 318.042 61.371 315.007 60.1969Z" fill="white"/>
<path d="M327.551 75.1304V75.1304C329.221 71.1975 327.847 66.6228 324.107 64.5575C321.294 63.0048 318.042 61.371 315.007 60.1969C309.04 57.8889 300.316 62.2899 296.7 64.7788V85.4822L324.33 84.9731L332.636 84.1246L337.722 81.7488L353.962 65.7729C355.782 63.9826 355.871 61.0772 354.165 59.1787V59.1787C352.458 57.28 349.559 57.0606 347.586 58.6807L327.551 75.1304ZM327.551 75.1304L326.873 75.3001L310.939 69.5303" stroke="#2C2650" stroke-width="2" stroke-miterlimit="10" stroke-linecap="round"/>
<rect x="288.295" y="61.9482" width="8.40501" height="24.6547" rx="1.02105" fill="#2C2650"/>
<rect x="288.295" y="61.9482" width="8.40501" height="24.6547" rx="1.02105" stroke="#2C2650" stroke-width="2" stroke-miterlimit="10" stroke-linecap="round"/>
<path d="M324.836 45.2749C324.836 44.2409 325.826 43.6689 327.344 43.6689C328.51 43.6689 330.182 44.0869 331.854 45.0989L332.932 42.8109C331.722 41.9969 330.116 41.4249 328.444 41.2709V38.3889L326.508 38.4109V41.2929C323.736 41.6009 321.932 43.1629 321.932 45.5169C321.932 50.9949 330.248 49.0809 330.248 52.5129C330.248 53.7009 329.17 54.3829 327.366 54.3829C325.716 54.3829 323.736 53.5909 322.152 52.1389L321.03 54.3829C322.438 55.6809 324.396 56.6049 326.508 56.7809V59.8609H328.444V56.7589C331.238 56.4289 333.13 54.8229 333.13 52.3809C333.152 46.8369 324.836 48.6409 324.836 45.2749Z" fill="#2C2650"/>
<path d="M213.764 37.3061L181.831 51.8337C179.671 52.8162 177.1 51.7706 176.083 49.5343L167.57 30.8217C166.543 28.5643 167.473 25.9511 169.613 24.9777L201.546 10.4502C203.706 9.46757 206.277 10.5133 207.294 12.7495L215.807 31.4622C216.854 33.7103 215.924 36.3235 213.764 37.3061Z" fill="white" stroke="#2C2650" stroke-width="2.04211" stroke-miterlimit="10" stroke-linecap="round"/>
<path d="M207.733 13.7135L168.008 31.7857L170.681 37.6604L210.405 19.5882L207.733 13.7135Z" fill="#2C2650" stroke="#2C2650" stroke-width="2.04211" stroke-miterlimit="10" stroke-linecap="round"/>
<path d="M177.907 43.1529L187.698 38.6985" stroke="#2C2650" stroke-width="2.59312" stroke-miterlimit="10" stroke-linecap="round"/>
<path d="M179.409 47.1955L199.271 38.1594" stroke="#2C2650" stroke-width="2.59312" stroke-miterlimit="10" stroke-linecap="round"/>
<rect x="158.66" y="28.2834" width="65.9945" height="48.2886" rx="7.14737" fill="white" stroke="#2C2650" stroke-width="2.04211" stroke-miterlimit="10" stroke-linecap="round"/>
<path d="M198.364 50.9906C198.364 47.0432 201.564 43.8432 205.511 43.8432H223.789C226.045 43.8432 227.873 45.6718 227.873 47.9274V56.9283C227.873 59.1839 226.045 61.0125 223.789 61.0125H205.511C201.564 61.0125 198.364 57.8125 198.364 53.8651V50.9906Z" fill="white" stroke="#2C2650" stroke-width="2.04211" stroke-miterlimit="10" stroke-linecap="round"/>
<circle cx="207.754" cy="52.1601" r="5.09713" fill="white" stroke="#2C2650" stroke-width="2.04211" stroke-miterlimit="10" stroke-linecap="round"/>
<path d="M157.87 50.2729L143.857 66.3739C143.303 67.1604 143.857 68.2365 144.836 68.2365L150.757 68.2365C151.438 68.2365 151.949 68.7746 151.949 69.3955L151.949 87.3177C151.949 87.98 152.503 88.4767 153.142 88.4767L164.472 88.4767C165.153 88.4767 165.664 87.9386 165.664 87.3177L165.664 69.3955C165.664 68.7332 166.218 68.2365 166.857 68.2365L172.777 68.2365C173.757 68.2365 174.311 67.1604 173.757 66.3739L159.744 50.2729C159.36 49.5692 158.338 49.5692 157.87 50.2729Z" fill="#2C2650"/>
<path d="M72.532 68.41H14.2564C10.3149 68.41 7.14697 65.0605 7.14697 60.9795V26.83C7.14697 22.7105 10.3517 19.3994 14.2564 19.3994H72.532C76.4735 19.3994 79.6414 22.749 79.6414 26.83V60.9795C79.6782 65.0989 76.4735 68.41 72.532 68.41Z" fill="white" stroke="#2C2650" stroke-width="2" stroke-miterlimit="10" stroke-linecap="round"/>
<path d="M79.6417 28.5893H7.14697V39.3104H79.6417V28.5893Z" fill="#2C2650" stroke="#2C2650" stroke-width="2" stroke-miterlimit="10" stroke-linecap="round"/>
<path d="M14.2947 52.5844H32.1631" stroke="#2C2650" stroke-width="2" stroke-miterlimit="10" stroke-linecap="round"/>
<path d="M13.7842 59.7321H50.0315" stroke="#2C2650" stroke-width="2" stroke-miterlimit="10" stroke-linecap="round"/>
<circle cx="74.114" cy="62.5686" r="15.541" fill="#2C2650"/>
<path d="M74.2517 72.1897V53.7923" stroke="white" stroke-width="2" stroke-miterlimit="10" stroke-linecap="round"/>
<path d="M67.1123 62.5792L73.4337 54.5558C73.8475 54.0307 74.6459 54.0383 75.0496 54.5712L81.1163 62.5792" stroke="white" stroke-width="2" stroke-miterlimit="10" stroke-linecap="round"/>
<circle cx="459.887" cy="50.9294" r="31.0185" fill="white" stroke="#2C2650" stroke-width="2.04211" stroke-miterlimit="10" stroke-linecap="round"/>
<path fill-rule="evenodd" clip-rule="evenodd" d="M459.193 75.6221C463.094 75.6221 466.256 72.4596 466.256 68.5585C466.256 67.6954 466.888 66.8793 467.751 66.8793H497.789C499.481 66.8793 500.852 68.2507 500.852 69.9425V82.7056C500.852 84.3974 499.481 85.7688 497.789 85.7688H421.21C419.519 85.7688 418.147 84.3974 418.147 82.7056V69.9425C418.147 68.2507 419.519 66.8793 421.21 66.8793H450.635C451.498 66.8793 452.129 67.6954 452.129 68.5585C452.129 72.4596 455.292 75.6221 459.193 75.6221Z" fill="#2C2650"/>
<path d="M457.105 44.0257C457.105 42.662 458.411 41.9076 460.413 41.9076C461.951 41.9076 464.156 42.4589 466.361 43.7936L467.783 40.776C466.187 39.7025 464.069 38.9481 461.864 38.745V34.944L459.311 34.973V38.774C455.655 39.1802 453.275 41.2403 453.275 44.3448C453.275 51.5696 464.243 49.0453 464.243 53.5716C464.243 55.1384 462.821 56.0379 460.442 56.0379C458.266 56.0379 455.655 54.9933 453.566 53.0783L452.086 56.0379C453.943 57.7498 456.525 58.9684 459.311 59.2005V63.2626H461.864V59.1715C465.549 58.7363 468.044 56.6182 468.044 53.3975C468.073 46.0857 457.105 48.465 457.105 44.0257Z" fill="#2C2650"/>
<circle cx="592.517" cy="49.4827" r="34.5169" fill="white" stroke="#2C2650" stroke-width="2" stroke-miterlimit="10" stroke-linecap="round"/>
<path d="M588.138 42.8381C588.138 41.0521 589.848 40.0641 592.47 40.0641C594.484 40.0641 597.372 40.7861 600.26 42.5341L602.122 38.5821C600.032 37.1761 597.258 36.1881 594.37 35.9221V30.9441L591.026 30.9821V35.9601C586.238 36.4921 583.122 39.1901 583.122 43.2561C583.122 52.7181 597.486 49.4121 597.486 55.3401C597.486 57.3921 595.624 58.5701 592.508 58.5701C589.658 58.5701 586.238 57.2021 583.502 54.6941L581.564 58.5701C583.996 60.8121 587.378 62.4081 591.026 62.7121V68.0321H594.37V62.6741C599.196 62.1041 602.464 59.3301 602.464 55.1121C602.502 45.5361 588.138 48.6521 588.138 42.8381Z" fill="#2C2650"/>
<circle cx="619.224" cy="29.1689" r="15.907" fill="#2C2650"/>
<path d="M612.975 29.1116L616.327 32.4635C616.895 33.0316 617.861 33.0316 618.486 32.4635L625.757 25.1917" stroke="white" stroke-width="2" stroke-miterlimit="10" stroke-linecap="round"/>
<rect x="729" y="50" width="48" height="35" rx="6.63684" fill="#2C2650"/>
<rect x="693.168" y="19.4" width="67.9" height="49.5211" rx="6.63684" fill="#C4C4C4"/>
<rect x="693" y="19" width="72" height="53" rx="5" fill="white" stroke="#2C2650" stroke-width="2.06033" stroke-miterlimit="10" stroke-linecap="round"/>
<path d="M746.223 42.5641L743.325 42.2456C742.229 42.1395 741.346 41.3967 740.922 40.3709V40.3355C740.498 39.3097 740.604 38.1424 741.31 37.3288L743.148 35.1004C743.431 34.7466 743.431 34.2513 743.077 33.933L740.109 30.9617C739.791 30.6433 739.296 30.608 738.943 30.891L736.716 32.6949C735.868 33.4024 734.702 33.5085 733.677 33.084H733.642C732.617 32.6596 731.875 31.7753 731.769 30.6788L731.451 27.7781C731.415 27.3536 731.027 27 730.603 27H726.397C725.973 27 725.585 27.3536 725.549 27.7781L725.231 30.6788C725.125 31.7753 724.383 32.6596 723.358 33.084H723.323C722.298 33.5085 721.132 33.4024 720.284 32.6949L718.057 30.891C717.704 30.608 717.209 30.6079 716.891 30.9617L713.923 33.933C713.605 34.2513 713.569 34.7466 713.852 35.1004L715.69 37.3288C716.396 38.1778 716.502 39.3097 716.078 40.3355V40.3709C715.654 41.3967 714.771 42.1395 713.675 42.2456L710.777 42.5641C710.353 42.5995 710 42.9886 710 43.413V47.6224C710 48.0469 710.353 48.4359 710.777 48.4713L713.675 48.7896C714.771 48.8957 715.654 49.6387 716.078 50.6645V50.6999C716.502 51.7257 716.396 52.893 715.69 53.7066L713.852 55.935C713.569 56.2888 713.569 56.7839 713.923 57.1023L716.891 60.0737C717.209 60.3921 717.704 60.4274 718.057 60.1444L720.284 58.3051C721.132 57.5976 722.263 57.4915 723.287 57.916H723.323C724.348 58.3404 725.09 59.2247 725.196 60.3212L725.514 63.2219C725.549 63.6464 725.938 64 726.362 64H730.567C730.991 64 731.38 63.6464 731.415 63.2219L731.734 60.3212C731.84 59.2247 732.582 58.3404 733.607 57.916H733.642C734.667 57.4915 735.833 57.5976 736.646 58.3051L738.872 60.1444C739.225 60.4274 739.72 60.4275 740.038 60.0737L743.007 57.1023C743.325 56.7839 743.36 56.2888 743.077 55.935L741.31 53.7066C740.604 52.8576 740.498 51.7257 740.922 50.6999V50.6645C741.346 49.6387 742.229 48.8957 743.325 48.7896L746.223 48.4713C746.647 48.4359 747 48.0469 747 47.6224V43.413C747 42.9886 746.647 42.5995 746.223 42.5641ZM728.518 51.9732C724.984 51.9732 722.086 49.0727 722.086 45.5354C722.086 41.9981 724.984 39.0975 728.518 39.0975C732.052 39.0975 734.949 41.9981 734.949 45.5354C734.914 49.0727 732.052 51.9732 728.518 51.9732Z" fill="#2C2650"/>
<path d="M700.5 27C701.328 27 702 26.3284 702 25.5C702 24.6716 701.328 24 700.5 24C699.672 24 699 24.6716 699 25.5C699 26.3284 699.672 27 700.5 27Z" fill="#2C2650"/>
<path d="M705.5 27C706.328 27 707 26.3284 707 25.5C707 24.6716 706.328 24 705.5 24C704.672 24 704 24.6716 704 25.5C704 26.3284 704.672 27 705.5 27Z" fill="#2C2650"/>
<path d="M711.5 27C712.328 27 713 26.3284 713 25.5C713 24.6716 712.328 24 711.5 24C710.672 24 710 24.6716 710 25.5C710 26.3284 710.672 27 711.5 27Z" fill="#2C2650"/>
<path d="M892.305 88.832H867.074C864.479 88.832 862.332 86.2036 862.332 83.0275V61.4523C862.332 58.2763 864.479 55.6478 867.074 55.6478H892.305C894.9 55.6478 897.047 58.2763 897.047 61.4523V83.0275C897.047 86.2036 894.9 88.832 892.305 88.832Z" fill="#2C2650"/>
<path d="M878.288 81.1737H850.54C846.917 81.1737 843.953 78.1837 843.953 74.5293V14.8128C843.953 11.1584 846.917 8.16843 850.54 8.16843H878.206C881.829 8.16843 884.793 11.1584 884.793 14.8128V74.4462C884.875 78.1837 881.911 81.1737 878.288 81.1737Z" fill="white" stroke="#2C2650" stroke-width="2.06033" stroke-miterlimit="10" stroke-linecap="round"/>
<path d="M874.584 9.18993V11.8792C874.584 13.5402 873.198 14.8057 871.568 14.8057H856.159C854.447 14.8057 853.142 13.4611 853.142 11.8792V9.18993" fill="#2C2650"/>
<path d="M874.584 9.18993V11.8792C874.584 13.5402 873.198 14.8057 871.568 14.8057H856.159C854.447 14.8057 853.142 13.4611 853.142 11.8792V9.18993" stroke="#2C2650" stroke-width="2.06033" stroke-miterlimit="10" stroke-linecap="round"/>
<path d="M864.374 60.2426C871.705 60.2426 877.647 54.1854 877.647 46.7136C877.647 39.2418 871.705 33.1847 864.374 33.1847C857.043 33.1847 851.1 39.2418 851.1 46.7136C851.1 54.1854 857.043 60.2426 864.374 60.2426Z" fill="#2C2650"/>
<path d="M857.226 46.5428L861.108 50.5441C861.766 51.2223 862.885 51.2223 863.609 50.5441L872.031 41.8633" stroke="white" stroke-width="2.06033" stroke-miterlimit="10" stroke-linecap="round"/>
</svg>
